<svg version="1.1" xmlns="http://www.w3.org/2000/svg" xmlns:xlink="http://www.w3.org/1999/xlink" width="232" height="232.52683" viewBox="0,0,232,232.52683"><g transform="translate(-124,-63.47317)"><g data-paper-data="{&quot;isPaintingLayer&quot;:true}" fill-rule="nonzero" stroke-linecap="butt" stroke-linejoin="miter" stroke-miterlimit="10" stroke-dasharray="" stroke-dashoffset="0" style="mix-blend-mode: normal"><g><path d="M124,296v-232h232v232z" fill="none" stroke="none" stroke-width="0"/><path d="M164.5,280v-200h151v200z" fill="none" stroke="#ffffff" stroke-width="3"/><g><path d="M171.27258,282.24677v-200h151v200z" fill="none" stroke="#ffffff" stroke-width="3"/><path d="M143.27545,266.74462c2.00215,-1.49712 3.49928,0.50503 3.49928,0.50503l2.85213,3.82494c3.44799,3.50991 8.50803,6.23618 13.54021,7.57327c-0.39449,-0.67107 -0.39449,-1.40109 -0.39449,-1.40109c0,-4.33489 -0.49491,-8.84601 0.57038,-13.08903c0.56107,-2.23471 1.79666,-4.24421 2.63023,-6.39219c1.51617,-3.90693 2.45859,-9.0703 2.80968,-13.2454c0.38191,-4.54162 -0.12927,-9.28206 -0.00942,-13.8391c0.27184,-10.33686 0.57692,-19.4746 -1.75328,-29.67881c-0.13182,-0.57843 -2.181,-9.51055 -2.23261,-9.98223c-0.5265,-4.81171 0.21941,-9.8228 -0.01241,-14.65996c-0.15865,-3.31033 -0.56419,-6.60451 -0.78985,-9.91094c-0.2966,-4.34581 -1.11267,-8.52172 -1.57775,-12.81962c-0.55617,-5.13977 0.0725,-10.25879 0.35488,-15.37219c0.32122,-5.81655 -0.10477,-11.67108 0.96301,-17.45445c1.02531,-5.55334 4.46149,-10.47702 6.95053,-15.42742c2.29682,-8.28212 6.79107,-15.09701 9.75981,-23.0171c2.07378,-5.5325 2.54691,-8.66101 8.20247,-11.75746c4.0652,-2.22572 9.20008,-3.13949 13.78968,-2.84925c2.48309,0.15703 4.90939,1.00085 7.39744,0.99573c9.77059,-0.02012 20.07001,-0.09526 29.76669,-1.49403c9.00278,-0.01134 18.1796,0.82465 27.03835,2.52576c2.56041,0.49166 4.88403,1.83927 7.38371,2.58022c4.31361,1.27864 8.94686,1.42619 13.32017,2.45141c3.8617,0.90529 6.70511,3.10569 10.52733,4.00646c6.51252,1.53477 11.71318,-0.15566 18.13818,-1.05545c0.69549,-0.0974 1.42936,0.26574 2.10546,0.07578c0.48684,-0.13679 3.54252,-2.49295 3.77236,-2.66533c2.47159,-1.4356 5.78502,-3.97541 9.02645,-2.15467c4.37566,2.45784 4.961,11.60034 5.35635,15.98295c0.39153,4.34027 -0.11689,8.81813 0.01108,13.17291c0.49651,16.89607 -0.18642,34.10532 1.49548,50.92383c0.02717,33.56297 -2.1605,67.13693 -3.20285,100.70071c-0.2068,6.65911 -0.28931,13.33644 -0.62082,19.99036c-0.09947,1.99661 0.49025,4.19054 -0.39193,5.98444c-2.90548,5.90824 -11.72828,7.0593 -17.35442,7.93782c-4.80716,0.75063 -9.70755,0.81681 -14.52032,1.50607c-2.74315,0.39286 -5.41708,1.23284 -8.17334,1.51954c-4.11282,0.42782 -8.36203,0.09983 -12.4948,0.45454c-5.98956,0.51409 -11.70081,1.5511 -17.73591,1.55613c-7.79775,0 -15.19946,-1.44321 -22.98382,-1.83474c-4.21262,-0.21189 -8.4898,0.08024 -12.6934,-0.17156c-4.06386,-0.24343 -8.00078,-1.69056 -12.04084,-2.00324c-1.54371,-0.11948 -3.11502,0.22092 -4.64497,-0.01697c-4.37004,-0.67949 -8.44773,-2.50874 -12.91767,-2.98931c-7.91143,-0.85057 -15.86318,-0.95175 -23.80249,-1.48558c-2.93911,0.00083 -5.91273,0.41861 -8.81726,-0.03089c-7.23267,-1.11933 -14.44368,-4.85449 -19.52489,-9.86661l-3.07681,-4.10399c0,0 -1.49713,-2.00215 0.50502,-3.49928zM166.7246,279.35165c2.5203,0.28076 5.08928,-0.10419 7.63117,-0.1035c8.07039,0.53371 16.15648,0.644 24.19751,1.51442c4.52066,0.48935 8.6747,2.33291 13.08233,3.01069c1.43482,0.22064 2.90784,-0.13112 4.35503,-0.01697c4.01501,0.31668 7.9258,1.76423 11.95916,1.99676c4.17174,0.2405 8.40995,-0.04496 12.59012,0.16529c7.70094,0.38734 15.03015,1.82843 22.73266,1.82843c5.87856,0.00519 11.44801,-1.03471 17.28472,-1.53573c4.12633,-0.3542 8.37994,-0.02672 12.48458,-0.4536c5.98877,-0.62284 11.9466,-1.86641 17.96828,-2.49686c4.84609,-0.50738 10.92115,-0.91117 15.21188,-3.37312c1.03855,-0.59591 2.32714,-1.1459 2.80521,-2.2437c0.53389,-1.22598 -0.09246,-2.67359 -0.08152,-4.01074c0.01363,-1.66661 0.10347,-3.33173 0.15521,-4.99759c0.15521,-4.99759 0.31041,-9.99518 0.46561,-14.99277c1.03822,-33.43062 3.19239,-66.86677 3.20668,-100.29591c-1.41122,-14.1125 -0.58252,-28.36538 -0.99955,-42.52654c-0.1828,-6.20748 -0.51084,-12.35408 -0.50108,-18.57344c0.00592,-3.76844 -0.36039,-8.16219 -1.42539,-11.78628c-0.30252,-1.02944 -0.33587,-2.35675 -1.2061,-2.98443c-0.661,-0.47677 -3.68268,1.66188 -3.97355,1.84533c-7.20006,5.40005 -19.35645,6.3888 -27.984,4.355c-3.84001,-0.90521 -6.66133,-3.13728 -10.47267,-3.99354c-4.50657,-1.01245 -9.23866,-1.24247 -13.67983,-2.54859c-2.33661,-0.68718 -4.48846,-2.00621 -6.88277,-2.45262c-8.4328,-1.57224 -17.13096,-2.4298 -25.69517,-2.4414c-9.81201,1.44183 -20.33837,1.52975 -30.23331,1.50597c-7.59145,-0.01825 -15.80096,-3.01887 -22.03967,3.61649c-2.19952,2.33937 -2.83994,7.41848 -4.10968,10.36887c-2.83399,6.5851 -6.25205,12.40374 -8.22912,19.44228c-2.2866,4.59586 -5.79125,9.43479 -6.71088,14.59898c-0.98792,5.54765 -0.57063,11.159 -0.87435,16.736c-0.2636,4.84017 -0.91517,9.71173 -0.37814,14.57762c0.48132,4.36111 1.29471,8.61042 1.59573,13.02225c0.22818,3.34435 0.63698,6.67646 0.79632,10.02479c0.22483,4.72437 -0.5253,9.64348 -0.01241,14.34004c0.34947,3.20005 1.42226,6.2791 2.13756,9.4177c2.41461,10.61525 2.15922,20.17235 1.87655,30.92127c-0.12278,4.66907 0.38482,9.50831 -0.00942,14.1609c-0.39788,4.6955 -1.5157,10.36185 -3.19032,14.7546c-0.72288,1.89621 -1.88013,3.63844 -2.36977,5.60781c-0.94805,3.81315 -0.42962,8.01643 -0.42962,11.91097c0,0 0,1.40028 -1.04798,2.10488z" fill="#ffffff" stroke="none" stroke-width="0.5"/><path d="M267.93979,162.77021c1.49746,-0.15807 3.00474,-0.25929 4.51766,-0.06495c2.93278,0.37671 5.68346,1.90098 8.4006,3.06727c2.80041,1.20203 5.40223,2.05022 7.89833,3.93794c0.19759,0.16945 1.06369,0.92306 2.11557,1.82449c-1.71222,-0.37363 -3.35474,-0.60493 -4.44718,-0.76252c-1.74653,0.09203 -3.52779,0.16192 -5.28943,0.19728c-1.76244,-1.91058 -6.65236,-4.83279 -7.68832,-5.41576c-1.60718,-0.90442 -3.49322,-1.91957 -5.50723,-2.78375z" data-paper-data="{&quot;noHover&quot;:false,&quot;origItem&quot;:[&quot;Path&quot;,{&quot;applyMatrix&quot;:true,&quot;segments&quot;:[[[533.44579,326.63902],[-3.21436,-1.80883],[2.07192,1.16594]],[[548.68498,337.35447],[-3.52488,-3.82116],[3.52327,-0.07071]],[[559.21593,337.00466],[-3.49306,0.18405],[2.18489,0.31519]],[[568.10555,338.54009],[-3.42443,-0.74725],[-2.10374,-1.80287]],[[563.87136,334.90021],[0.39517,0.33891],[-4.9922,-3.77544]],[[548.09634,327.11812],[5.60081,2.40406],[-5.43428,-2.33258]],[[531.45442,320.97014],[5.86556,0.75342],[-3.02584,-0.38866]],[[522.42804,321.08198],[2.99493,-0.31614],[4.02802,1.72836]]],&quot;closed&quot;:true}]}" fill="#a06008" stroke="none" stroke-width="0.5"/><path d="M249.71749,171.35314c-1.51146,-1.01999 -3.17217,-2.03974 -4.67401,-2.48057c-4.92403,-1.44532 -9.82812,-0.61873 -14.81999,-0.61631c-1.27174,0.00062 -4.07987,-0.15978 -5.88666,0.40666c1.9606,-1.13535 3.93871,-2.23444 5.93204,-3.15114c3.50296,-1.61096 6.57458,-1.78278 10.38277,-2.29223c2.41164,-0.32262 4.62951,-1.30197 7.08553,-1.47781c2.01845,-0.14451 4.12883,0.11315 6.26189,0.44566c-0.97666,0.62493 -1.88293,1.47505 -2.69626,2.57821c-1.45456,1.9729 -2.00814,4.42469 -1.5853,6.58752z" data-paper-data="{&quot;noHover&quot;:false,&quot;origItem&quot;:[&quot;Path&quot;,{&quot;applyMatrix&quot;:true,&quot;segments&quot;:[[[488.96147,325.05207],[-2.90912,3.9458],[1.62666,-2.20633]],[[494.35697,319.90937],[-1.95332,1.24987],[-4.26612,-0.66503]],[[481.84186,319.03871],[4.0369,-0.28902],[-4.91203,0.35168]],[[467.71721,322.03681],[4.82328,-0.64523],[-7.61639,1.01888]],[[447.09191,326.54136],[7.00592,-3.22192],[-3.98666,1.8334]],[[435.22747,332.81806],[3.9212,-2.27069],[3.61358,-1.13288]],[[447,332],[-2.54348,0.00123],[9.98375,-0.00483]],[[476.44892,333.21454],[-9.84806,-2.89064],[3.00369,0.88165]],[[485.79889,338.17114],[-3.02291,-2.03999],[-0.84568,-4.32567]]],&quot;closed&quot;:true}]}" fill="#a06008" stroke="none" stroke-width="0.5"/><path d="M230.40582,198.32937c-1.07907,-1.15826 -2.16429,-2.32241 -3.31196,-3.38479l-0.07245,-0.1728c0,0 -0.62025,-1.4489 -2.02372,-1.55501c-2.36542,-1.64091 -5.67491,-3.09751 -7.247,-5.43241c-1.85626,-2.75696 -5.94697,-9.82864 -3.89933,-13.23775c0.94376,-1.57127 2.1937,-1.50453 3.89491,-2.03534c1.73809,-0.98973 3.58427,-2.01058 5.35442,-3.05446c-1.93634,2.24949 -1.93782,5.23902 -1.17197,8.2874c-0.18514,0.00154 -0.38418,0.02165 -0.59825,0.06446c-2.45145,0.49029 -1.96022,2.93772 -1.96022,2.93772c0.97466,4.55146 4.2757,11.13129 8.81708,13.21926c0.96642,0.44432 1.94459,0.80264 2.93282,1.10426c0.03375,0.02839 0.06724,0.0568 0.10054,0.0856l1.71298,1.1569c0,0 1.66986,1.11213 3.0148,-0.15321c2.1168,0.3606 4.25192,0.62191 6.38529,1.01732c3.49505,0.6478 7.72918,3.58764 11.41857,1.83559c1.55556,-0.73872 2.95544,-2.06671 3.45476,-3.71479c0.36926,-1.21881 -2.24117,-6.1598 -2.60492,-7.32107c-0.72965,-2.32936 -0.86096,-4.83881 -1.40198,-7.21907c-0.11705,-0.51499 -0.65057,-0.98624 -0.51908,-1.49774c0.24839,-0.96622 1.68357,-1.56719 1.5715,-2.55851c-0.00984,-0.08706 -0.02361,-0.17281 -0.04139,-0.25719c1.02336,0.43357 1.87859,0.63727 2.6835,0.71016c-1.3327,5.25905 1.52356,12.30763 5.38583,15.08116c3.4295,2.46276 8.5611,4.57836 12.8477,3.95716c1.0432,-0.15117 1.9622,-0.79836 2.99781,-0.99489c2.45616,-0.46609 5.0293,0.39523 7.49858,0.00451c1.69359,-0.26798 3.25915,-1.05972 4.88919,-1.59172c0,0 1.55115,-0.51386 1.72604,-1.96659c0.81576,-0.25952 1.49361,-0.53817 1.88473,-0.8304c3.99475,-2.98467 6.54826,-8.37805 5.06694,-13.1637c0.86196,0.50393 1.81042,1.00051 2.62194,1.58087c0.63378,0.45326 1.55068,0.66372 1.90428,1.35806c0.644,1.26457 0.5521,2.79031 0.90585,4.16461c0.18218,0.70775 0.67567,1.34951 0.70046,2.07991c0.17411,5.12912 -7.38162,5.40221 -11.08366,6.79109c-5.24736,1.96863 -11.07532,2.57859 -16.20068,4.78663c-3.11075,1.34014 -5.5476,3.96618 -8.54687,5.54006c-5.28328,2.77244 -12.77536,2.94447 -18.58209,3.29749c-0.78934,0.013 -1.58742,-0.00244 -2.38249,-0.0419c-1.68886,-0.95996 -3.29853,-2.12828 -5.01783,-3.03153c-4.2221,-2.21813 -8.43164,-3.89724 -12.77823,-5.69954c-0.11017,-0.04568 -0.21901,-0.09466 -0.32642,-0.14583z" data-paper-data="{&quot;noHover&quot;:false,&quot;origItem&quot;:[&quot;Path&quot;,{&quot;applyMatrix&quot;:true,&quot;segments&quot;:[[[448.01355,392.42336],[-0.22034,-0.09137],[8.69319,3.60461]],[[473.54637,403.7851],[-8.4442,-4.43626],[3.4386,1.80651]],[[483.56103,409.83215],[-3.37773,-1.91991],[1.59013,0.07892]],[[488.31699,409.91138],[-1.57869,0.02601],[11.61346,-0.70605]],[[525.38602,403.32401],[-10.56656,5.54487],[5.99854,-3.14777]],[[542.4463,392.28026],[-6.2215,2.68027],[10.25072,-4.41608]],[[574.83684,382.7394],[-10.49471,3.93725],[7.40407,-2.77775]],[[597.00308,369.17547],[0.34822,10.25823],[-0.04959,-1.4608]],[[595.60242,365.02025],[0.36436,1.4155],[-0.70751,-2.74861]],[[593.79189,356.70034],[1.288,2.52913],[-0.7072,-1.38866]],[[589.98405,353.98799],[1.26757,0.90651],[-1.62303,-1.16072]],[[584.93457,350.77947],[1.72392,1.00786],[2.96263,9.57131]],[[574.80384,377.13987],[7.98951,-5.96933],[-0.78224,0.58445]],[[571.03413,378.80357],[1.63151,-0.51904],[-0.3498,2.90545]],[[567.58114,382.74342],[0,0],[-3.26008,1.06401]],[[557.80091,385.93544],[3.38718,-0.53596],[-4.93856,0.78144]],[[542.80091,385.93544],[4.91233,-0.93219],[-2.07122,0.39305]],[[536.80091,387.93544],[2.08639,-0.30235],[-8.57319,1.24239]],[[511.07645,380.05621],[6.859,4.92552],[-7.72453,-5.54707]],[[500.26544,349.91198],[-2.6654,10.5181],[-1.60982,-0.14578]],[[494.91677,348.48581],[2.04671,0.86714],[0.03556,0.16876]],[[495,349],[-0.01968,-0.17412],[0.22414,1.98265]],[[491.87613,354.10604],[0.49678,-1.93244],[-0.26298,1.02299]],[[492.91808,357.0986],[-0.23411,-1.02998],[1.08204,4.76051]],[[495.75894,371.46623],[-1.45929,-4.65873],[0.72751,2.32254]],[[500.89789,386.00533],[0.73852,-2.43761],[-0.99864,3.29615]],[[493.91342,393.6194],[3.11112,-1.47744],[-7.37878,3.50411]],[[471.03373,389.90574],[6.9901,1.29559],[-4.26674,-0.79083]],[[458.25699,387.85665],[4.23361,0.7212],[-2.68989,2.53067]],[452.2265,388.16025],[[448.79908,385.84111],[0,0],[-0.0666,-0.0576]],[[448.5979,385.66954],[0.0675,0.05679],[-1.97646,-0.60325]],[[442.73111,383.45557],[1.93283,0.88865],[-9.08276,-4.17593]],[[425.0971,356.98058],[1.94931,9.10292],[0,0]],[[429.01942,351.0971],[-4.9029,0.98058],[0.42814,-0.08563]],[[430.21606,350.96762],[-0.37028,0.00308],[-1.5317,-6.09674]],[[432.56754,334.37386],[-3.87267,4.49899],[-3.54029,2.08775]],[[422.04085,340.56453],[3.47618,-1.97947],[-3.40243,1.06163]],[[414.25325,344.62866],[1.88752,-3.14253],[-4.09527,6.81822]],[[422.05621,371.07645],[-3.71251,-5.51392],[3.14417,4.66981]],[[436.54921,381.92586],[-4.73084,-3.28181],[2.80694,0.21221]],[440.59573,385.0304],[[440.74051,385.37545],[0,0],[2.29535,2.12478]],[[447.36097,392.13246],[-2.15814,-2.31652],[0.21483,0.10233]]],&quot;closed&quot;:true}]}" fill="#a06008" stroke="none" stroke-width="0.5"/><path d="M279.20587,175.92097c2.32924,-0.04277 4.68601,-0.07355 6.99644,-0.20939c1.66926,0.23528 6.50911,0.87083 7.77841,2.21342c2.35033,2.48603 -0.45362,7.21631 -2.56213,8.76609c-1.92046,1.41157 -4.6393,1.16756 -6.98059,1.61378c-0.77188,0.14711 -8.19124,1.57061 -9.24207,1.47276c-1.4755,-0.13739 -2.83742,-0.93515 -4.24612,-1.3951l-3.53634,-1.01979c0,0 -1.56909,-0.44948 -2.53408,0.64528c-2.26813,-1.87649 -4.67179,-8.0394 -2.7985,-10.60185c0.21194,-0.28992 0.49937,-0.46447 0.83115,-0.56457c1.9084,0.11746 3.82312,0.21981 5.74353,0.37893c1.94914,-0.04567 8.51501,-0.11752 9.67036,-0.7558c0.28688,-0.15849 0.58847,-0.34045 0.87994,-0.54376z" data-paper-data="{&quot;noHover&quot;:false,&quot;origItem&quot;:[&quot;Path&quot;,{&quot;applyMatrix&quot;:true,&quot;segments&quot;:[[[543.10374,348.53589],[0.57377,-0.31698],[-2.31071,1.27655]],[[523.85241,349.99782],[3.89829,-0.09133],[-3.84082,-0.31824]],[[512.37217,349.22579],[3.8168,0.23491],[-0.66356,0.2002]],[[510.71152,350.35032],[0.42389,-0.57984],[-3.74659,5.1249]],[[516.30654,371.4856],[-4.53626,-3.75297],[1.92999,-2.18952]],[521.37361,370.19238],[[528.43314,372.20979],[0,0],[2.81739,0.91989]],[[536.8853,374.96947],[-2.951,-0.27479],[2.10165,0.1957]],[[555.2559,372.04999],[-1.54376,0.29422],[4.68257,-0.89243]],[[569.19616,368.86013],[-3.84093,2.82314],[4.21702,-3.09956]],[[574.32059,351.38555],[4.70066,4.97206],[-2.5386,-2.68517]],[[558.78407,346.99534],[3.33853,0.47055],[-4.62086,0.27169]],[[544.85115,347.4472],[4.65848,-0.08554],[-0.58293,0.40663]]],&quot;closed&quot;:true}]}" fill="#75501d" stroke="none" stroke-width="0.5"/><path d="M227.12613,176.50856c-0.2353,-0.74265 -1.63145,-2.42085 -0.697,-3.45615c0.23722,-0.26282 0.69895,0.1336 1.05268,0.14868c0.91706,0.03909 1.84053,0.0071 2.75842,0.00755c4.50418,0.00221 8.8974,-0.83668 13.32734,0.3848c1.23423,0.34032 4.04055,2.29599 5.02639,2.9387c1.82611,0.4676 -0.34204,-0.3047 -0.71764,1.63419c-0.22418,1.15726 0.31026,2.3541 0.48589,3.51972c0.33312,2.2107 0.98235,5.95074 1.57499,7.85117c0.52776,1.6924 1.93783,3.03367 2.42554,4.73804c0.24309,0.84951 -1.79225,0.23275 -2.6544,0.03919c-2.18473,-0.49049 -4.23127,-1.55847 -6.43123,-1.97536c-3.31833,-0.62881 -6.62578,-0.9193 -9.83991,-1.76826c-3.66156,-3.56049 -4.77866,-9.22575 -6.31107,-14.06227z" data-paper-data="{&quot;noHover&quot;:false,&quot;origItem&quot;:[&quot;Path&quot;,{&quot;applyMatrix&quot;:true,&quot;segments&quot;:[[[453.39451,376.57235],[-7.32313,-7.12098],[6.42827,1.69792]],[[472.96627,380.09426],[-6.63666,-1.25762],[4.39993,0.83377]],[[485.80091,384.06456],[-4.36947,-0.98097],[1.7243,0.38712]],[[491.10211,383.99467],[0.48617,1.69903],[-0.97541,-3.40874]],[[486.24106,374.53377],[1.05553,3.38479],[-1.18528,-3.80086]],[[483.08192,358.9014],[0.66625,4.4214],[-0.35128,-2.33123]],[[482.12387,351.89396],[-0.44836,2.31452],[0.75119,-3.87777]],[[483.56392,348.63227],[3.65221,0.93521],[-1.97167,-1.28544]],[[473.55108,342.78546],[2.46845,0.68063],[-8.85986,-2.44296]],[[447,342],[9.00836,0.00441],[-1.83579,-0.0009]],[[441.49269,341.97567],[1.83412,0.07818],[-0.70747,-0.03015]],[[439.38966,341.67562],[0.47445,-0.52565],[-1.8689,2.07059]],[[440.79272,348.57527],[-0.4706,-1.4853],[3.06481,9.67304]]],&quot;closed&quot;:true}]}" fill="#75501d" stroke="none" stroke-width="0.5"/><path d="M306.80452,105.34011c-3.06982,0.61521 -5.92405,0.94442 -9.06086,0.94746c-0.91789,0.00089 -1.84585,-0.06431 -2.76107,0.00574c-0.32191,0.02464 -0.78294,0.55514 -0.93142,0.26847c-0.67516,-1.3035 1.32528,-5.69716 1.58859,-6.66366c0.52503,-1.92709 1.13572,-3.87946 1.90201,-5.72394c0.46966,-1.13048 0.40003,-2.90759 1.53914,-3.35591c3.62438,-1.42646 10.1844,-0.86442 12.02569,3.07362c1.19515,2.55612 1.64344,5.51836 1.68784,8.33974c-0.1372,2.10337 -1.78574,3.11932 -3.73352,3.69781c-0.89672,-0.86458 -2.2564,-0.58931 -2.2564,-0.58931z" data-paper-data="{&quot;noHover&quot;:false,&quot;origItem&quot;:[&quot;Path&quot;,{&quot;applyMatrix&quot;:true,&quot;segments&quot;:[[[604.51636,207.28554],[-1.79344,-1.72915],[3.89557,-1.15698]],[[611.95114,199.9319],[-0.27439,4.20674],[-0.0888,-5.64276]],[[608.58149,183.34026],[2.3903,5.11224],[-3.68257,-7.87608]],[[584.66586,177.23003],[7.24876,-2.85293],[-2.27822,0.89665]],[[581.6194,183.91342],[0.93932,-2.26097],[-1.53258,3.68897]],[[577.8325,195.28334],[1.05006,-3.85418],[-0.52663,1.93299]],[[574.63227,208.56392],[-1.35031,-2.607],[0.29697,0.57335]],[[576.49269,208.02433],[-0.64381,0.04928],[1.83043,-0.1401]],[[582,208],[-1.83579,0.00178],[6.27361,-0.00607]],[[600.01942,206.0971],[-6.13964,1.23041],[0,0]]],&quot;closed&quot;:true}]}" fill="#75501d" stroke="none" stroke-width="0.5"/><path d="M231.56327,104.65284c-1.98979,-1.19388 -3.26284,0.5643 -3.43226,0.8234c-0.87852,-0.08098 -1.77113,-0.18043 -2.64191,-0.17718l-1.65268,-0.34347c-0.05454,-0.24125 -0.10944,-0.4852 -0.16288,-0.72593c-0.26669,-1.20132 -0.66208,-4.61461 -1.08619,-5.79123c-0.64481,-1.78894 -2.58837,-3.06681 -2.87519,-4.94665c-0.15969,-1.04665 1.86982,-1.42016 2.91863,-1.27533c1.54984,0.21403 2.90079,1.55627 4.46284,1.46805c2.77973,-0.157 2.5909,-2.50911 4.85293,-3.07801c3.46832,-0.87228 7.17099,1.04399 9.61651,3.30194l0.04087,0.13608c-0.76618,0.42715 -1.28216,1.25385 -1.28216,2.19333c0,0.32061 0.06098,0.63194 0.17094,0.91362l1.58207,4.37637c0.12742,1.24586 0.46496,3.25242 -0.68124,3.42247c-2.1993,0.32628 -4.39037,-1.4458 -6.58856,-1.11217c-0.9364,0.14212 -1.58503,1.13227 -2.45976,1.47528c-0.186,-0.23391 -0.44365,-0.4576 -0.78196,-0.66059z" data-paper-data="{&quot;noHover&quot;:false,&quot;origItem&quot;:[&quot;Path&quot;,{&quot;applyMatrix&quot;:true,&quot;segments&quot;:[[[451.12689,206.03503],[-0.372,-0.46782],[1.74945,-0.68604]],[[456.01027,203.09893],[-1.8728,0.28424],[4.39639,-0.66726]],[[469.15897,205.35128],[-4.39859,0.65257],[2.2924,-0.3401]],[[470.50927,198.53138],[0.25485,2.49171],[0,0]],[[467.34062,189.81759],[0,0],[-0.21992,-0.56335]],[[467,188],[0,0.64121],[0,-1.87896]],[[469.5688,183.62984],[-1.53236,0.85431],[0,0]],[[469.4875,183.35884],[0,0],[-4.89103,-4.51589]],[[450.33467,176.81857],[6.93665,-1.74455],[-4.52407,1.13779]],[[440.70942,182.94942],[5.55946,-0.314],[-3.12411,0.17645]],[[431.79888,179.99595],[3.09967,0.42805],[-2.09762,-0.28967]],[[425.97218,182.52675],[-0.31939,-2.0933],[0.57364,3.75969]],[[431.72937,192.37732],[-1.28962,-3.57788],[0.84821,2.35325]],[[433.8776,203.90044],[-0.53338,-2.40265],[0.10688,0.48145]],[[434.1989,205.34746],[-0.10908,-0.48249],[0,0]],[[437.49269,206.02433],[0,0],[1.74156,-0.00651]],[[442.75201,206.36532],[-1.75704,-0.16196],[0.33883,-0.5182]],[[449.57248,204.71254],[-3.97958,-2.38775],[0.67663,0.40598]]],&quot;closed&quot;:true}]}" fill="#75501d" stroke="none" stroke-width="0.5"/><path d="M233.41961,110.11037c0.89396,-0.19803 1.43206,-1.2916 2.33197,-1.46048c2.44953,-0.45969 5.15509,1.87036 7.4384,0.87134c3.12948,-1.36925 4.65953,-5.93854 3.76737,-8.99147c-0.04826,-0.16514 -0.12435,-0.21706 -0.21202,-0.35836l0.08264,-0.0301l-0.17979,-0.60889c0.64328,-0.45234 1.06489,-1.20022 1.06489,-2.04636c0,-0.27016 -0.05013,-0.43058 -0.12941,-0.6743l-1.41805,-4.73338l-0.18033,0.05416l-0.06765,-0.61775c-0.19358,-0.19957 -0.38875,-0.4967 -0.589,-0.69101c2.50059,0.9274 5.0163,1.89638 7.54114,2.33966c2.54881,0.44749 5.18154,0.17382 7.76487,0.32578c2.31339,0.13608 4.64449,0.0333 6.95551,0.20504c1.12045,0.08326 2.21772,0.62237 3.33532,0.50695c5.68175,-0.58679 11.28939,-3.44646 16.89405,-4.5442c2.15987,-0.42303 4.29402,-0.46644 6.44929,-0.45873c-0.52583,1.06078 -0.91396,2.20865 -1.26884,3.05824c-1.61757,3.87256 -5.27639,11.83717 -3.22475,16.48207l-4.03425,0.03573c0,0 -2.41611,-0.06458 -2.42623,2.4354c-0.01012,2.49998 2.49174,2.51331 2.49174,2.51331l4.6299,0.0187c6.50258,0.49397 13.92159,-1.09182 20.20616,-3.1523c1.40482,-0.46059 5.38198,-2.57595 6.2215,-4.02778c0.21213,-0.36686 0.34563,-0.76326 0.43704,-1.17617c0.05664,0.22842 0.20811,0.42728 0.27011,0.67428c1.42557,5.67987 2.62811,11.44266 3.17352,17.28532c1.19358,12.78599 -1.87962,25.9296 -4.36422,38.37025c-0.934,3.7409 -1.33288,7.3247 -2.02128,11.09588c-0.27411,1.50162 -1.04388,2.93502 -1.04388,4.46146c0,2.67471 1.65578,5.21484 1.50088,7.88506c-0.07627,1.3147 -0.56242,2.57548 -0.8835,3.85265c-0.19459,0.77404 -0.09438,1.74337 -0.665,2.3014c-0.39625,0.38751 -1.10866,-0.02573 -1.66289,-0.02455c-0.68734,0.00146 -1.45641,-0.11544 -2.14562,-0.12857c0.50101,-1.43788 0.67498,-3.0159 0.77236,-4.53032c0.07138,-1.11022 -0.58182,-2.14681 -0.87507,-3.21997c-0.50489,-1.84765 -0.58055,-3.87118 -1.52144,-5.53955c-1.82691,-3.23944 -6.83378,-4.81559 -9.73577,-6.74196c-2.29762,-1.52519 -4.21019,-3.56294 -6.30453,-5.3571c-2.90024,-2.16105 -5.82993,-3.18935 -9.08454,-4.58208c-3.12756,-1.33836 -6.25509,-2.93274 -9.62538,-3.39527c-3.32322,-0.45607 -6.60809,0.35229 -9.88452,0.49524c-5.12646,0.22366 -10.53176,-1.78597 -15.53616,-1.47185c-2.64103,0.16577 -5.17881,1.20745 -7.80198,1.55603c-4.2272,0.56174 -7.74825,0.8445 -11.66306,2.646c-4.25222,1.95677 -8.40553,4.64679 -12.48047,6.98376c-1.09797,0.38521 -2.24987,0.44866 -3.22555,1.08267c-6.54045,4.25012 -3.70097,11.73012 -0.92908,17.23877c0.73008,1.4509 1.26752,3.01569 2.2051,4.34199c0.45313,0.641 0.91127,1.2927 1.45434,1.80365c-1.22932,-0.39271 -2.42675,-0.85484 -3.55567,-1.44268c-4.13718,-2.15427 -4.35086,-6.33457 -6.94786,-9.76751c-1.78404,-2.35832 -4.18576,-3.64597 -6.59181,-5.31403c-1.83394,-0.22091 -3.65748,-0.72266 -5.50379,-0.66518c-3.29964,0.10272 -4.58519,1.47952 -7.55414,1.01863c-1.99386,-0.30952 -3.76093,-1.52337 -5.73288,-1.95077c-2.49846,-0.54151 -10.11217,-0.46333 -10.68456,-4.68443c-0.08436,-0.62215 1.25446,-8.23882 1.34531,-8.53777c0.40247,-1.32422 0.91713,-2.65315 1.71925,-3.78104c2.21104,-3.10898 6.69829,-3.60605 9.74217,-5.41134c4.81023,-2.85288 11.42078,-9.28363 13.13483,-14.89399c0.51988,-1.70165 0.38308,-3.54326 0.57454,-5.31223c-3.19958,-5.79959 -6.04988,-11.34638 -8.63347,-17.45361c-0.28107,-0.6644 -0.61084,-1.48442 -0.87788,-2.35606c0.07422,-0.21809 0.1515,-0.43573 0.23154,-0.65187c0.57809,-1.56113 1.53892,-2.96659 2.11579,-4.52817c1.08104,-2.92633 1.11442,-4.37731 1.78169,-6.3291c2.16517,-2.87692 4.65039,-5.57801 7.11623,-7.83144c2.34245,-2.14067 4.00009,-2.61983 5.96385,-5.55291c0.16234,-0.24247 0.35154,-0.57603 0.53439,-0.95985c0.01619,0.00565 0.03254,0.01121 0.04904,0.01671c2.37171,0.79057 3.16439,-1.58281 3.16439,-1.58281l1.01673,-4.5375c-0.36079,-0.22728 -0.70998,-0.52348 -1.0547,-0.84436c1.24132,-0.01797 2.40606,0.78119 3.63649,1.03117c1.58926,0.32289 3.20864,0.48947 4.81169,0.73495c4.86745,1.54251 9.32473,3.86476 14.0884,5.5452c-0.60602,0.35898 -1.14607,0.89137 -1.71836,1.29245c-0.39847,0.27926 -0.4741,1.14499 -0.95855,1.09946c-1.28041,-0.12034 -2.2564,-1.50821 -3.54236,-1.52427c-3.24889,-0.04058 -7.4993,2.00034 -8.07853,5.72997c-0.21846,1.40664 2.53819,5.48395 3.12277,7.07372c1.52625,4.15066 0.41876,10.33615 4.85208,13.17123c1.58152,1.01137 3.63061,1.85067 5.40843,1.2478c0.26397,-0.08952 1.72352,-2.42966 2.87081,-4.32385c1.19326,-0.01155 2.14373,-0.0371 2.3503,-0.08286z" data-paper-data="{&quot;noHover&quot;:false,&quot;origItem&quot;:[&quot;Path&quot;,{&quot;applyMatrix&quot;:true,&quot;segments&quot;:[[[448.64081,215.98099],[2.38653,-0.0231],[-2.29459,3.78837]],[[442.91342,224.6194],[0.52795,-0.17903],[-3.55564,1.20575]],[[431.96503,221.97353],[3.16305,2.02275],[-8.86664,-5.67016]],[[422.27063,195.62268],[3.0525,8.30132],[-1.16916,-3.17955]],[[416.02782,181.47325],[-0.43691,2.81329],[1.15845,-7.45926]],[[432.20112,170.00405],[-6.49777,-0.08117],[2.57191,0.03213]],[[439.29058,173.05058],[-2.56082,-0.24068],[0.96891,0.09106]],[[441.21006,170.85076],[-0.79695,0.55852],[1.14459,-0.80215]],[[444.7112,168.45517],[-1.21203,0.71796],[-9.52733,-3.36089]],[[416.55179,157.35736],[9.73489,3.08501],[-3.20609,-0.49096]],[[406.93352,155.88449],[3.17852,0.64578],[-2.46087,-0.49997]],[[399.66366,153.82011],[2.48264,-0.03593],[0.68945,0.64176]],[[401.77257,155.50916],[-0.72159,-0.45456],[0,0]],[399.74342,164.58114],[[393.41886,167.74342],[4.74342,1.58114],[-0.03298,-0.01099]],[[393.32083,167.70998],[0.03237,0.0113],[-0.3657,0.76764]],[[392.25325,169.62866],[0.32468,-0.48494],[-3.92752,5.86615]],[[380.33461,180.72564],[4.6849,-4.28134],[-4.93169,4.50687]],[[366.112,196.37562],[4.33033,-5.75385],[-1.33454,3.90358]],[[362.55354,209.02528],[2.16209,-5.85265],[-1.15376,3.12315]],[[358.32523,218.07452],[1.15619,-3.12225],[-0.16007,0.43227]],[[357.86257,219.37724],[0.14844,-0.43617],[0.53408,1.74328]],[[359.6194,224.08658],[-0.56214,-1.32881],[5.16718,12.21446]],[[376.8922,258.96733],[-6.39916,-11.59918],[-0.38293,3.53794]],[[375.74342,269.58114],[1.03976,-3.40331],[-3.4281,11.22072]],[[349.47069,299.34691],[9.62045,-5.70575],[-6.08776,3.61057]],[[329.98537,310.166],[4.42207,-6.21797],[-1.60425,2.25577]],[[326.54566,317.72429],[0.80494,-2.64843],[-0.18172,0.5979]],[[323.8517,334.79126],[-0.16873,-1.24431],[1.14477,8.4422]],[[345.2156,344.15002],[-4.99691,-1.08302],[3.94391,0.8548]],[[356.67798,348.04618],[-3.98772,-0.61904],[5.93788,0.92178]],[[371.78322,346.0047],[-6.59929,0.20544],[3.69261,-0.11495]],[[382.78686,347.33019],[-3.66788,-0.44183],[4.81211,3.33611]],[[395.96082,357.94846],[-3.56809,-4.71663],[5.19399,6.86589]],[[409.84185,377.47275],[-8.27436,-4.30854],[2.25784,1.17568]],[[416.94803,380.3552],[-2.45863,-0.78541],[-1.08615,-1.02191]],[[413.94379,376.92355],[0.90625,1.28199],[-1.87515,-2.65261]],[[409.52786,368.23607],[1.46016,2.9018],[-5.54378,-11.01729]],[[411.37134,333.74675],[-13.0809,8.50024],[1.95135,-1.26803]],[[417.95915,331.43547],[-2.19594,0.77043],[8.14989,-4.67393]],[[442.90809,317.45864],[-8.50444,3.91354],[7.82963,-3.60301]],[[466.20066,312.15248],[-8.4544,1.12348],[5.24634,-0.69717]],[[481.76976,309.03897],[-5.28206,0.33155],[10.00881,-0.62824]],[[512.79221,312.00432],[-10.25291,0.44731],[6.55285,-0.28589]],[[532.54558,311.02986],[-6.64644,-0.91215],[6.74059,0.92507]],[[551.7922,317.82615],[-6.25512,-2.67672],[6.50922,2.78546]],[[570.12864,327.09979],[-5.80049,-4.32209],[4.18868,3.58833]],[[582.73674,337.81548],[-4.59525,-3.05038],[5.80398,3.85275]],[[602.20811,351.29966],[-3.65383,-6.47889],[1.88178,3.33673]],[[605.24829,362.3826],[-1.00977,-3.6953],[0.5865,2.14633]],[[606.99692,368.82453],[0.14276,-2.22043],[-0.19474,3.02884]],[[605.4492,377.88887],[1.00203,-2.87576],[1.37842,0.02625]],[[609.5876,378.01704],[-1.37468,0.00293],[1.10847,-0.00237]],[[612.91263,378.06704],[-0.7925,0.77502],[1.14124,-1.11606]],[[614.24106,373.46623],[-0.38919,1.54808],[0.64216,-2.55434]],[[616.00556,365.7643],[-0.15254,2.6294],[0.30981,-5.34044]],[[613,350],[0,5.34942],[0,-3.05286]],[[615.08501,341.0819],[-0.54821,3.00324],[1.37678,-7.54237]],[[619.12181,318.90306],[-1.868,7.4818],[4.96919,-24.88129]],[[627.84558,242.21281],[2.38715,25.57197],[-1.09083,-11.68533]],[[621.50465,207.66383],[2.85115,11.35975],[-0.12399,-0.49399]],[[621.14921,206.23876],[0.11327,0.45684],[-0.18282,0.82582]],[[620.27558,208.59218],[0.42427,-0.73372],[-1.67904,2.90366]],[[607.64655,216.72111],[2.80964,-0.92118],[-12.56913,4.12095]],[[567.23758,223.03347],[13.00516,0.98793],[0,0]],[557.97976,222.99996],[[553.00004,217.97976],[-0.02024,4.99996],[0.02024,-4.99996]],[558.02024,213.00004],[[565.91961,213.03525],[0,0],[-4.10328,-9.2898]],[[572.3806,180.08658],[-3.23515,7.74511],[0.70976,-1.69919]],[[574.91969,173.97163],[-1.05166,2.12155],[-4.31053,-0.01543]],[[562.02573,174.89366],[4.31973,-0.84607],[-11.20932,2.19549]],[[528.25265,183.99361],[11.3635,-1.17359],[-2.23519,0.23084]],[[521.5876,182.98296],[2.2409,0.16653],[-4.62204,-0.34348]],[[507.68913,182.57859],[4.62678,0.27216],[-5.16665,-0.30392]],[[492.17587,181.93161],[5.09762,0.89497],[-5.04967,-0.88655]],[[477.11101,177.25402],[5.00118,1.85481],[0.40051,0.38861]],[[478.29258,178.43607],[-0.38715,-0.39914],[0,0]],[478.42807,179.67158],[478.78913,179.56326],[[481.62922,189.03021],[0,0],[0.15856,0.48743]],[[481.87348,190.57826],[0,-0.54032],[0,1.69229]],[[479.74619,194.67115],[1.28656,-0.90468],[0,0]],[480.1164,195.68922],[[479.95089,195.7494],[0,0],[0.17534,0.2826]],[[480.36354,196.66579],[-0.09652,-0.33028],[1.78432,6.10587]],[[472.84103,214.64872],[6.25897,-2.7385],[-4.56662,1.99804]],[[457.98973,212.90107],[4.89907,-0.91939],[-1.79983,0.33777]],[[453.33467,215.81857],[1.78791,-0.39605],[-0.41315,0.09152]]],&quot;closed&quot;:true}]}" fill="#a06008" stroke="none" stroke-width="0.5"/><path d="M283.16624,147.32142c1.48336,-0.36432 2.94342,-1.28514 4.45565,-1.0701c0.15213,0.02164 0.30304,0.04783 0.45285,0.07816l0.00793,-0.0634l3.96709,0.49588c1.00278,0.11061 1.8269,0.8143 2.11388,1.75259c1.08693,-0.22558 2.07452,-0.50263 2.71025,-0.83989c0.00723,-0.00384 0.01445,-0.0078 0.02168,-0.0119c0.08306,-0.10895 0.16751,-0.21461 0.25294,-0.31661c0.11671,-0.13935 0.24821,-0.25571 0.39175,-0.35324c0.81852,-1.19329 1.54645,-3.41947 1.73637,-3.88831c-1.34928,-4.82781 -4.65165,-8.32237 -8.93451,-9.9383c-4.51522,0.62604 -9.24683,0.44177 -13.75286,0.89603c-0.18058,0.1256 -0.34832,0.25957 -0.50054,0.40248c-1.6276,1.52815 -0.87631,7.37772 -0.81679,8.68162c0.08856,1.93983 -0.78226,4.54578 0.71573,5.78141c0.16831,0.13883 0.49946,0.22815 0.9068,0.28406c2.04138,-0.77379 4.15182,-1.36982 6.27178,-1.89048zM273.37234,156.74478c-1.55577,-0.35017 -3.41848,-0.05881 -4.6673,-1.0505c-3.95195,-3.13822 -0.67891,-11.67326 0.12144,-15.46384c0.80173,-3.79708 1.10886,-9.35814 5.61716,-10.84287c4.44989,-2.93231 10.87708,-3.06868 16.47519,-1.35867c1.71575,-0.34569 3.445,-1.12773 5.09918,-0.66841c1.58866,0.44113 2.71601,2.01576 3.56428,3.42958c0.30895,0.51494 -0.64019,1.23821 -0.43756,1.76896c0.06429,0.06005 0.12786,0.12048 0.19072,0.18129c0.28971,0.04224 0.77265,-0.45655 1.14334,-0.48502c2.48528,-0.1909 4.98859,-0.17741 7.46196,-0.4864c1.36726,-0.17081 2.79838,-0.95253 4.1024,-0.50744c0.19617,0.06696 0.38864,0.14158 0.57785,0.2229l0.0294,-0.07841l3.94535,1.47951c0.97631,0.34031 1.67684,1.269 1.67684,2.36131c0,1.12609 -0.74452,2.07828 -1.76818,2.39119l-2.1292,0.70565c0.84091,2.87174 0.0255,6.67213 -1.33916,8.53921c-1.34846,1.84491 -3.67903,2.86046 -6.06552,3.47598l0.2396,0.20034l0.04725,-0.11024l3.44704,1.47731c0.9192,0.36945 1.56816,1.26922 1.56816,2.32056c0,1.38071 -1.11929,2.5 -2.5,2.5h-5v-0.02098c-1.1535,0.10542 -2.3328,0.02342 -3.5969,-0.37139c-1.38348,1.03209 -2.9031,-0.10763 -2.9031,-0.10763c-0.71994,-0.92524 -2.17078,-1.69735 -2.76247,-2.64946c-5.05093,1.46743 -11.16012,1.34341 -16.41858,1.7418c-1.90877,0.47209 -3.81465,0.95198 -5.71918,1.40568zM309.03999,143.87757c1.94817,-2.45186 1.11177,-4.13207 -0.76741,-4.14446v0.01367h-4c-0.28929,0 -0.5671,-0.04913 -0.82554,-0.13951c0.24631,1.03748 0.45879,2.22778 0.8215,3.78168c-0.28081,0.78477 -0.5429,1.66738 -0.84098,2.56852c2.02276,-0.30307 4.58623,-0.78836 5.61244,-2.07989z" fill="#000000" stroke="none" stroke-width="0.5"/><path d="M276.85507,149.24269c-0.40733,-0.0559 -0.7402,-0.14755 -0.90851,-0.28638c-1.498,-1.23563 -0.6354,-3.86192 -0.72396,-5.80175c-0.05953,-1.3039 -0.80421,-7.18754 0.82338,-8.7157c0.15221,-0.14291 0.32124,-0.27887 0.50182,-0.40446c4.50603,-0.45426 9.29753,-0.28853 13.81275,-0.91457c4.28287,1.61593 7.61619,5.16479 8.96547,9.99259c-0.18992,0.46884 -0.9236,2.71161 -1.74212,3.9049c-0.14354,0.09752 -0.27612,0.21572 -0.39283,0.35507c-0.08542,0.102 -0.17081,0.20911 -0.25386,0.31806c-0.00723,0.0041 -0.01451,0.00814 -0.02174,0.01198c-0.63572,0.33726 -1.63034,0.62269 -2.71727,0.84827c-0.28698,-0.93829 -1.11268,-1.64053 -2.11546,-1.75114l-3.99114,-0.48428l-0.00811,0.06343c-0.14981,-0.03033 -0.30494,-0.05596 -0.45707,-0.0776c-1.51223,-0.21504 -3.00411,0.69788 -4.48747,1.0622c-2.11996,0.52067 -4.24249,1.10559 -6.28388,1.87938z" data-paper-data="{&quot;noHover&quot;:false,&quot;origItem&quot;:[&quot;Path&quot;,{&quot;applyMatrix&quot;:true,&quot;segments&quot;:[[[552.78732,290.14929],[-4.23992,1.04133],[2.96673,-0.72864]],[[561.69862,288.00909],[-3.02447,-0.43008],[0.30426,0.04327]],[[562.60432,288.16541],[-0.29962,-0.06065],[0,0]],[562.62017,288.03861],[[570.55436,289.03038],[0,0],[2.00556,0.22122]],[[574.78212,292.53556],[-0.57396,-1.87658],[2.17386,-0.45116]],[[580.20261,290.85577],[-1.27145,0.67452],[0.01445,-0.00767]],[[580.24597,290.83198],[-0.01446,0.0082],[0.16611,-0.2179]],[[580.75185,290.19875],[-0.17085,0.204],[0.23342,-0.27871]],[[581.53535,289.49228],[-0.28708,0.19505],[1.63704,-2.38657]],[[585.00809,281.71567],[-0.37984,0.93767],[-2.69856,-9.65561]],[[567.13907,261.83907],[8.56573,3.23185],[-9.03044,1.25208]],[[539.63334,263.63113],[9.01206,-0.90853],[-0.36116,0.25119]],[[538.63227,264.43608],[0.30442,-0.28582],[-3.2552,3.05631]],[[536.99869,281.79933],[-0.11905,-2.6078],[0.17712,3.87965]],[[538.43016,293.36214],[-2.99599,-2.47126],[0.33662,0.27766]],[[540.24376,293.93026],[-0.81467,-0.11181],[4.08277,-1.54757]]],&quot;closed&quot;:true}]}" fill="#ffffff" stroke="none" stroke-width="0.5"/><path d="M246.04034,131.51454c-1.76776,1.76776 -3.53553,0 -3.53553,0l0.26776,-0.76776c-1.03586,-0.02023 -2.07705,0.10733 -3.12241,0.32016c2.80891,0.80536 4.98255,1.76908 7.14159,4.70575c1.16522,1.58491 1.49932,3.63741 2.24899,5.45611c0.2097,1.32683 1.04585,5.83515 1.20436,8.90408c0.37596,0.42446 0.63338,1.0503 0.50235,1.96746c-0.18884,1.32184 -0.98281,1.83682 -1.68165,2.02976c-1.21309,1.22588 -2.97445,2.01363 -4.55294,2.72235c-1.6477,0.73979 -3.56614,0.5757 -5.34922,0.86355l-2.98007,0.49676c0,0 -2.46598,0.411 -2.87698,-2.05499c-0.0198,-0.1188 -0.03292,-0.23282 -0.03997,-0.34227c-6.02161,1.27263 -14.80404,-1.17212 -19.00451,-5.51007c-1.66013,-1.71446 -2.61182,-3.69137 -2.98756,-5.75047c-0.60475,-0.1692 -1.15398,-0.35758 -1.62001,-0.57211c-1.0428,-0.48003 -1.67998,-1.56496 -2.51997,-2.34744l-2.73371,-4.1792c2.35222,-0.70352 4.71683,-1.44243 7.1286,-1.89557c-1.68151,0.10516 -3.29478,0.15633 -4.73342,0.18603c-1.20299,0.02483 -2.4735,0.19714 -3.60319,-0.21708c-0.08173,-0.02997 -0.16313,-0.06064 -0.24425,-0.09198l-0.01001,0.03668l-4.77142,-1.3013c-1.0882,-0.27065 -1.8946,-1.25426 -1.8946,-2.4262c0,-1.0731 0.67611,-1.98829 1.62559,-2.34282l2.44594,-0.97837l0.06941,0.17354l0.38629,-0.30724c4.66081,-0.05744 9.2736,0.5775 13.81513,1.59755c0.25495,-0.03364 0.50913,-0.07053 0.7624,-0.11122c0.68912,-0.11073 1.37938,-0.21559 2.06897,-0.32417c-0.4179,-0.44685 -0.67373,-1.04719 -0.67373,-1.70727c0,-0.99801 0.58479,-1.85943 1.43041,-2.26029l2.95156,-1.47578l0.13118,0.26235l0.65502,-0.50417c1.49544,0.3679 3.47703,-0.0595 4.48634,1.10369c1.2435,1.43309 1.91823,2.56912 2.16387,3.49874c0.58405,0.07324 1.16807,0.16917 1.75078,0.28164c4.27431,-0.5042 8.06569,-2.84675 12.43084,-2.90619l3.26776,2.23224c0,0 1.76776,1.76776 0,3.53553zM224.20494,136.32435c-0.80104,2.92237 -4.82685,3.48405 -7.79252,3.71839c-0.04432,0.1444 -0.08525,0.28933 -0.12259,0.43463c2.1014,0.42049 4.29251,0.67303 5.99779,1.19477c4.23013,1.29425 6.92384,3.73242 10.89126,5.24469c1.20316,0.45861 2.70352,0.28223 3.70558,1.09081c0.11868,0.09577 0.23251,0.19612 0.34208,0.30051l0.04603,-0.06138l0.53135,0.39852c1.54116,-0.23602 3.07842,-0.39966 4.55993,-0.39685c1.01304,0.00192 2.01187,0.1683 3.00778,0.37395c-0.1748,-0.5036 -0.3783,-1.01114 -0.45798,-1.50521c-0.24521,-1.52045 -0.46356,-3.04511 -0.69534,-4.56767c-1.91693,-5.01002 -3.31469,-6.04584 -8.57651,-7.38362c-1.83485,-0.4665 -3.81359,-1.10712 -5.79862,-1.52533c-1.64452,0.21774 -3.29044,0.17408 -4.93347,-0.36445c-0.43449,0.02819 -0.95876,0.0648 -1.50819,0.12967c0.66379,0.90677 1.07093,1.94256 0.8034,2.91858zM227.48705,149.60217c-2.12759,-1.22836 -4.29872,-2.44306 -6.64695,-3.14414c-1.04879,-0.31312 -2.4563,-0.55996 -3.95385,-0.80802c0.25609,0.41057 0.57398,0.80232 0.96018,1.16934c2.35198,2.2352 5.44207,3.58821 8.60826,3.98897c0.20477,-0.50527 0.56995,-0.92837 1.03237,-1.20615z" fill="#000000" stroke="none" stroke-width="0.5"/><path d="M223.36648,133.37013c0.54943,-0.06487 1.07823,-0.10543 1.51272,-0.13362c1.64302,0.53853 3.31278,0.57224 4.9573,0.3545c1.98503,0.41821 4.0024,1.06992 5.83724,1.53642c5.26182,1.33778 6.67729,2.41797 8.59422,7.42799c0.23178,1.52256 0.4463,3.06135 0.69151,4.5818c0.07968,0.49407 0.28159,1.00489 0.45639,1.50849c-0.99591,-0.20566 -1.99671,-0.36862 -3.00974,-0.37055c-1.48151,-0.00281 -3.02744,0.17115 -4.5686,0.40716l-0.53183,-0.39808l-0.04632,0.06163c-0.10957,-0.10439 -0.22364,-0.20453 -0.34232,-0.3003c-1.00206,-0.80857 -2.51667,-0.62361 -3.71983,-1.08222c-3.96741,-1.51227 -6.72928,-3.9928 -10.95942,-5.28705c-1.70529,-0.52175 -3.89654,-0.7801 -5.99794,-1.20059c0.03734,-0.1453 0.07834,-0.29174 0.12266,-0.43614c2.96567,-0.23434 7.00041,-0.82151 7.80145,-3.74388c0.26753,-0.97601 -0.1337,-2.01879 -0.79749,-2.92556z" data-paper-data="{&quot;noHover&quot;:false,&quot;origItem&quot;:[&quot;Path&quot;,{&quot;applyMatrix&quot;:true,&quot;segments&quot;:[[[434.86473,268.15516],[0.53506,-1.95203],[-1.60208,5.84474]],[[419.2797,275.59194],[5.93133,-0.46869],[-0.08864,0.2888]],[[419.03452,276.4612],[0.07469,-0.29059],[4.2028,0.84098]],[[431.03011,278.85075],[-3.41057,-1.04349],[8.46027,2.5885]],[[452.81262,289.34013],[-7.93483,-3.02454],[2.40631,0.91722]],[[460.22377,291.52174],[-2.00411,-1.61715],[0.23736,0.19153]],[[460.90793,292.12276],[-0.21914,-0.20877],[0,0]],[461,292],[[462.0627,292.79703],[0,0],[3.08232,-0.47203]],[[471.18256,292.00333],[-2.96302,-0.00562],[2.02607,0.00385]],[[477.19812,292.75123],[-1.99182,-0.41131],[-0.3496,-1.00721]],[[476.28217,289.74081],[0.15936,0.98813],[-0.49042,-3.0409]],[[474.89149,280.60548],[0.46356,3.04511],[-3.83386,-10.02003]],[[457.73847,265.83824],[10.52364,2.67556],[-3.6697,-0.93299]],[[446.14123,262.78758],[3.97005,0.83642],[-3.28903,0.43548]],[[436.2743,262.05868],[3.28605,1.07706],[-0.86898,0.05638]],[[433.25792,262.31801],[1.09885,-0.12974],[1.32759,1.81354]]],&quot;closed&quot;:true}]}" fill="#ffffff" stroke="none" stroke-width="0.5"/><path d="M179.23846,193.1937c-0.35628,-1.5433 -0.79393,-3.06093 -0.96671,-4.75405c-0.22831,-2.23717 -0.04063,-4.49774 -0.01217,-6.74634c0.01336,-1.05613 -0.25342,-2.16876 0.09071,-3.16734c0.06023,-0.17476 0.12344,-0.34411 0.18953,-0.5082c-0.45574,-0.1603 -0.91686,-0.29976 -1.38804,-0.39948c-5.21033,-1.10269 -12.81973,-1.48058 -14.31805,-8.32062c-0.42398,-1.93553 0.19738,-3.96184 0.44768,-5.92739c0.48984,-3.84661 1.13095,-7.36411 3.48685,-10.6152c2.81679,-3.88711 7.42598,-4.5003 11.25597,-6.73525c5.05316,-2.9487 10.3677,-8.97899 11.28925,-14.8102c-2.79929,-4.03583 -4.4405,-7.88061 -6.29294,-12.22381c-0.20442,2.41423 -0.24988,4.8413 -0.26096,7.20747c-0.00871,1.85809 -1.21192,5.70853 1.589,4.03402c0,0 2.46598,-0.411 2.87698,2.05498c0.411,2.46598 -2.05498,2.87699 -2.05498,2.87699c-1.55355,0.06643 -3.41601,1.13137 -4.66065,0.19928c-1.6886,-1.26457 -2.10388,-3.6986 -2.71023,-5.71921c-0.33018,-1.10029 -0.0355,-2.2973 -0.04012,-3.44606c-0.01743,-4.33299 0.08778,-8.7415 1.04954,-12.99521c0.21047,-0.93088 0.48369,-1.84343 0.79415,-2.74505c-0.55611,-2.1973 -0.6429,-4.44701 0.3328,-6.68239c1.31341,-3.00907 3.31996,-6.0612 5.59477,-8.90639c1.1659,-2.71166 2.60683,-5.29345 4.81733,-7.78234c2.20493,-2.48261 4.94859,-4.46713 7.04618,-7.04108c0.49856,-0.61178 0.98675,-1.40313 1.50643,-2.23934c0.22965,-0.72384 0.5851,-1.37148 1.20342,-1.84885c1.06026,-1.49707 2.32223,-2.82058 4.0314,-3.18023c3.64401,-0.76679 7.3572,1.15708 11.0366,1.73049c5.51218,1.72929 10.51399,4.45065 15.97948,6.1624c3.13959,0.9833 6.42905,1.40811 9.61452,2.23074c3.92337,1.01319 7.95014,3.14603 11.90545,3.83144c2.37491,0.41155 4.81996,0.12219 7.22611,0.26373c2.35298,0.13841 4.71842,0.02333 7.06802,0.21059c0.90146,0.07184 1.76814,0.58952 2.66747,0.49468c5.39362,-0.56878 10.76697,-3.4253 16.11346,-4.45002c3.37923,-0.64767 6.60893,-0.55317 10.01286,-0.55317c5.38576,0.00182 12.78092,-0.54671 17.64928,2.33912c5.31114,3.1483 6.60259,12.90285 7.95246,18.27495c1.49302,5.94178 2.74052,11.96558 3.3039,18.07851c1.2265,13.30818 -1.87284,26.90498 -4.46654,39.85589c-0.92302,3.68714 -1.26582,7.20047 -1.9816,10.91057c-0.23163,1.20057 -0.95749,2.31824 -0.95749,3.54095c0,1.22271 0.73573,2.33852 0.95749,3.54095c0.68563,3.71747 0.70578,9.92983 -1.94267,13.39191c0.61431,4.05471 -1.23741,9.38931 -1.73768,12.33202c-0.30352,1.78539 -0.26816,3.64583 -0.81956,5.37086c-0.82011,2.5657 -2.61321,4.09309 -4.42411,5.86947c0.15327,0.05654 0.30351,0.12147 0.45003,0.19637c4.53078,2.31619 4.06289,4.05119 2.31741,8.77608c-0.158,0.42769 -0.33354,0.85418 -0.52548,1.2778c0.92296,1.04567 1.30934,2.99548 2.02243,4.25973c1.08598,1.92535 1.46585,4.17253 2.10339,6.28911c1.6414,5.44928 2.87852,10.98692 4.49716,16.49028c0,0 0.22714,0.77225 -0.01457,1.56924c5.03843,4.13892 7.27497,10.12198 9.4518,16.24464c0.99412,2.79612 2.60148,5.21625 -0.80813,7.87061c-1.34679,1.04847 -3.36464,0.58602 -5.02758,0.97043c-2.18275,0.50457 -4.33982,1.13864 -6.54922,1.50953c-4.87865,0.97573 -9.75569,0.83497 -14.6236,1.78248c-4.62448,0.90013 -9.19871,2.23115 -13.81383,3.20522c-6.21435,1.31161 -11.93288,4.45168 -18.28876,5.04316c-9.29683,0.86515 -18.26275,-1.08871 -27.42006,-1.99756c-4.29569,-0.42634 -8.16698,-0.02689 -12.46584,-0.96722c-3.0847,-0.68549 -6.13748,-1.53383 -9.25335,-2.05976c-4.7797,-0.80677 -9.83264,-0.62079 -14.55934,-1.68814c-3.2245,-0.72814 -6.26293,-2.18618 -9.50654,-2.82385c-6.09719,-1.19867 -12.55351,-0.81803 -17.91435,-4.37875c-4.42283,-2.93768 -6.928,-7.84245 -9.69437,-12.20179c-2.03618,-3.20869 -3.91653,-5.90112 -2.19292,-9.89325c1.81204,-4.19696 7.35665,-6.10221 11.03192,-8.14444c1.29305,-0.6106 2.44929,-1.84987 3.87914,-1.83182c0.87934,0.01111 1.59151,0.62454 2.3091,1.21466c-1.40491,-2.84808 -2.61669,-5.83123 -4.14889,-8.44621c-3.71618,-6.3423 -5.79102,-12.95269 -5.28518,-20.41002c0.12396,-1.82753 -0.29084,-3.93259 0.74292,-5.44473c0.15841,-0.23173 0.3353,-0.44494 0.52716,-0.64312l-0.04167,-0.04167l2.5,-2.5c0.26397,-0.26397 0.58669,-0.46918 0.94687,-0.59434c-1.82748,-2.01844 -3.12959,-4.60241 -4.55004,-7.34503c-0.12915,-1.62169 -1.27491,-3.50161 -0.38747,-4.86506c0.48528,-0.74558 1.14889,-1.37806 1.91084,-1.89407c0.50805,-1.43618 2.12306,-1.52753 2.32645,-1.53334zM263.022,211.70711c0.43926,0.04628 3.34958,0.40489 5.55467,0.53491c-1.46078,-0.28369 -2.92449,-0.52915 -4.43435,-0.55147c-0.4001,-0.00591 -0.7954,-0.002 -1.18661,0.00966c0.0221,0.00227 0.0442,0.00457 0.06629,0.0069zM185.88902,202.28413c-1.4283,-0.92672 -2.58147,-1.80449 -3.82392,-2.59606c-1.01866,-0.05575 -1.58725,-0.54926 -1.90461,-1.08282c-0.06621,-0.03276 -0.133,-0.06529 -0.20041,-0.09759c-0.27416,0.15149 -0.27316,0.57086 0.17043,1.39276c1.21057,2.3054 2.34248,5.1035 4.54964,6.73571c3.11096,2.30057 7.11865,1.20499 10.85682,1.36131c-3.14766,-2.06205 -6.48359,-3.66019 -9.64795,-5.71331zM271.33082,217.20191c0.08564,0.00616 0.17174,0.0058 0.25843,-0.0028c0.18224,-0.01809 0.35869,-0.05988 0.53151,-0.11682c-0.12932,0.02291 -0.25908,0.04495 -0.38928,0.06607c-0.12736,0.02066 -0.26116,0.03844 -0.40067,0.05355zM299.1461,237.69928c-1.59787,1.78278 -3.71978,3.83555 -4.90289,4.29238c-0.07854,0.03033 -0.15753,0.05966 -0.23696,0.08802c0.0759,0.41729 0.15121,0.83464 0.22699,1.25176c0.09789,0.88859 -0.02738,7.95979 2.01968,8.41374c0.28458,0.06311 -0.21371,-0.59019 -0.11998,-0.8662c0.30273,-0.89138 0.98091,-1.62645 1.27071,-2.52212c0.4549,-1.40595 0.56496,-2.90332 0.94663,-4.33089c0.68147,-2.54888 1.75289,-4.79693 2.91121,-7.04543c-0.04728,0.02034 -0.09463,0.04042 -0.14203,0.06023zM278.11395,238.14272c-1.09747,1.95838 -2.46182,3.80717 -3.72242,5.85625c-0.20598,0.33481 -0.55392,0.94824 -0.97539,1.64851c0.06239,0.48941 0.05926,0.9841 0.01234,1.48213c0.0702,0.88201 0.15015,1.76273 0.29407,2.635c0.20306,1.23068 0.51707,2.4455 0.90621,3.63056c0.41586,1.26647 2.00892,6.20993 4.57335,5.36106c0.9019,-0.29854 1.29154,-1.39851 2.00673,-2.02387c0.52103,-0.45558 1.24809,-0.67418 1.68905,-1.20764c2.88877,-3.49479 3.57121,-8.4959 4.31446,-13.05564c-3.34582,-0.60174 -6.66997,-2.20595 -9.09841,-4.32637zM256.89675,241.86061c-0.15625,-0.17251 -0.83441,-0.79354 -1.43518,-1.56465l0.298,0.39734l-0.06593,0.04944c0.18896,0.23635 0.3499,0.49386 0.47407,0.77911c0.76989,1.76865 -0.31132,3.84591 -0.40883,5.77239c-0.0727,1.43638 -0.20605,3.3631 -0.55622,5.33897c0.2482,0.82601 0.57836,1.53119 1.02338,2.0164c2.30574,2.514 7.02761,3.60818 9.8349,1.20938c1.25077,-1.06877 1.58118,-3.64132 1.73948,-6.1449c-5.02567,-0.17646 -7.66535,-4.27831 -10.90368,-7.85349zM255.05194,239.72094c-0.00251,0.00627 -0.00502,0.01254 -0.00753,0.0188l0.22218,0.29624c-0.07437,-0.10328 -0.14634,-0.20851 -0.21465,-0.31505zM234.04708,253.00978c-0.61608,-0.63686 -1.06729,-1.39903 -1.43931,-2.21362c-1.50845,2.98402 -3.67938,5.86476 -6.69286,5.89231c-6.68428,0.06112 -8.15701,-6.89838 -10.39251,-11.37934c-0.7604,-1.5242 -1.76135,-2.92402 -2.47526,-4.47054c-0.06709,-0.14534 -0.13697,-0.29111 -0.2078,-0.43746c-0.17807,-0.05397 -0.35503,-0.11019 -0.53075,-0.16854c-1.24265,2.89271 -1.76315,6.09422 -3.23439,8.87898c-0.77256,1.46231 -1.41109,3.5095 -3.00593,3.94732c-1.75093,0.48067 -3.93166,-0.37797 -5.17453,-1.70164c-1.38345,-1.47337 -1.23015,-3.85043 -1.84611,-5.77536c-0.73091,-2.28413 -1.35487,-4.61282 -1.75406,-6.97759c-0.74846,-4.50263 -1.03108,-8.82007 -1.03359,-13.38557c-0.00087,-1.57217 -0.22449,-3.16135 -0.03856,-4.71939c-0.44912,0.31958 -0.92165,0.61644 -1.04248,0.79583c-0.50916,0.75593 -0.78197,1.64664 -1.163,2.47459c-1.41341,3.0712 -4.07714,12.85212 -9.92025,9.6361c-0.26664,-0.14676 -0.50191,-0.32874 -0.7116,-0.5383c1.10262,2.17123 2.36508,4.30893 3.58814,6.66208c1.87772,3.61275 3.03697,7.96056 5.99656,10.94017c1.25974,1.26827 2.90529,2.0276 4.58204,2.73796c0.91134,0.16368 1.88309,0.41101 3.03786,0.91613c2.52275,1.10351 4.60061,2.85937 6.59064,4.74134c1.12677,0.63631 2.32321,1.14654 3.66375,1.39711c5.94265,1.11077 11.74375,1.74066 17.37319,4.12124c4.91663,2.08465 10.35689,-0.19318 15.63306,1.18989c2.78082,0.72896 5.2172,2.51739 8.01142,3.19317c6.05714,1.46493 12.59,0.79333 18.65746,2.54453c1.06288,0.30677 1.9034,1.18104 2.96582,1.48939c0.30547,0.08866 0.61322,0.16596 0.92291,0.23384c2.79127,-0.69533 5.61024,-1.33943 8.44391,-1.33945c3.96037,-0.00002 8.03981,1.78862 12.01208,1.95239c0.13295,0.00548 0.60145,0.00222 1.22688,-0.02915c1.2409,-0.54197 2.42714,-1.32866 3.53825,-2.44183c2.39646,-2.40089 3.36607,-6.63708 4.2534,-9.75412c0.40573,-1.11613 2.65417,-7.05331 2.90466,-8.59223c0.84756,-5.20731 0.47346,-10.8435 0.47346,-16.13671v-0.41186c-1.53201,3.01863 -3.20224,5.73861 -4.09071,9.0792c-0.90134,3.38897 -0.69759,5.30413 -2.78266,8.14699c-0.87177,1.1886 -1.64628,3.10223 -3.11998,3.13379c-4.3041,0.09217 -6.11305,-2.30484 -6.97186,-5.31494c-0.73931,2.6817 -1.80008,5.24047 -3.67311,7.53539c-0.6164,0.75524 -1.53346,1.20426 -2.31095,1.79235c-1.32401,1.00148 -2.35556,2.70434 -3.99327,2.97613c-4.82101,0.80009 -7.63708,-2.31671 -9.35961,-5.96117c-0.35214,0.63684 -0.82993,1.25255 -1.49924,1.85843c-3.34105,3.02445 -8.89111,3.38746 -12.7844,1.4176c-1.66625,-0.84306 -2.76997,-1.49563 -3.5781,-2.26742c-1.1624,1.80734 -2.84164,3.0398 -5.27934,3.01487c-4.74743,-0.04855 -7.68191,-2.72844 -9.70217,-6.31669c-1.46475,-0.64658 -2.97352,-1.23577 -4.06709,-2.36619zM229.04457,236.11649c-1.38995,1.68201 -3.09789,3.06017 -4.82829,3.88651c-1.62251,0.77482 -3.39029,1.15773 -5.18833,1.234c0.97016,2.11028 1.95614,4.21757 2.96203,6.32701c0.58715,1.23131 1.60186,4.07822 3.61425,4.13412c0.9075,0.0252 2.35507,-2.99766 2.48788,-3.27605c0.87863,-1.84164 1.25317,-3.92518 1.85419,-5.88839c-0.44901,-2.11537 -0.72845,-4.26028 -0.90173,-6.41721zM181.02821,227.0595c-0.20954,-1.24843 -0.21238,-2.54808 -0.47447,-3.7891c-0.10892,-0.51576 -0.22748,-1.02954 -0.35096,-1.54228c-0.00629,0.41633 0.00537,0.82391 0.04463,1.21884c0.14577,1.46652 0.41615,2.82472 0.7808,4.11254zM202.22556,237.7823c0.15444,0.94019 0.22934,1.89697 0.4633,2.82059c0.3058,1.20723 0.83724,2.34912 1.15148,3.55418c0.26324,1.0095 0.48234,2.03176 0.65687,3.06085c0.25971,-1.76279 1.25929,-3.93413 1.55985,-4.7473c0.33223,-0.89885 0.91931,-2.64887 1.7487,-4.4794c-3.6812,-2.90464 -5.16115,-8.20716 -6.29487,-12.9179c0.09677,4.23007 -0.00202,8.42084 0.71467,12.70898zM247.7028,256.69395c1.48269,0.31225 1.76298,-2.59421 1.86157,-2.94326c0.18796,-0.66544 0.40167,-1.32517 0.60398,-1.98755c-0.05373,-0.25015 -0.10275,-0.49534 -0.14776,-0.73722c-1.08025,2.0266 -2.5314,3.74468 -4.83094,4.67236c0.73448,0.45481 1.56601,0.79621 2.51315,0.99568zM312.3322,242.86203c0.03638,3.60821 -0.01975,7.24347 -0.59915,10.69456c-0.21797,1.29829 -0.97277,3.56299 -1.71571,5.64183c1.00307,-0.60342 2.10654,-1.05308 3.18068,-1.54815c-0.60606,-0.44167 -1.23847,-1.25699 -0.84225,-2.64377c0.47497,-1.6624 1.77113,-1.84666 2.5255,-1.80218c-0.93645,-3.42786 -1.69472,-6.90409 -2.54907,-10.34228zM281.41088,278.79416c-2.27862,-0.28482 -4.60462,-0.34231 -6.87266,-0.68325c-1.4533,0.38256 -2.89257,0.76513 -4.30182,1.03649c-5.69364,1.09638 -11.28234,0.98784 -17.03119,1.54216c-3.15878,-0.49959 -6.40215,-1.32711 -9.60098,-1.50109c-5.16371,-0.28085 -10.21863,0.73126 -15.22302,-1.15455c-2.71226,-1.02206 -6.38179,-3.69822 -8.89014,-5.18634c-1.31295,-0.77893 -2.60584,-1.61354 -4.01025,-2.21204c-0.90068,-0.38383 -2.00528,-0.21592 -2.8497,-0.71141c-2.90837,-1.70655 -5.33412,-4.41257 -7.89707,-6.83485c-2.22272,-1.33959 -4.24432,-2.99541 -6.61572,-4.17166c-0.77777,-0.38579 -1.5807,-0.74498 -2.38457,-1.10692c-2.83125,-0.65246 -5.56378,-0.79102 -8.37575,-2.54722c-1.60952,-1.00522 -3.01197,-2.30962 -4.4934,-3.49554c-0.33934,-0.27165 -0.29967,-1.09907 -0.73382,-1.07794c-0.53901,0.02622 -0.74724,0.77878 -1.12086,1.16818c-2.31516,1.28593 -7.70004,3.19946 -8.96809,5.85556c-0.98649,2.06635 0.82298,3.56496 1.80708,5.10675c2.57447,4.03341 5.34936,10.31417 10.34633,12.05452c4.47903,1.55996 9.43421,1.45123 14.04494,2.36494c3.29077,0.65213 6.38007,2.10926 9.65104,2.85438c4.62174,1.0528 9.60397,0.84399 14.28309,1.63363c3.2013,0.54025 6.33926,1.40526 9.50852,2.10954c4.06005,0.91836 7.70304,0.46753 11.77229,0.86347c8.89147,0.86516 17.55414,2.78646 26.57994,2.00244c6.09336,-0.52929 11.73388,-3.68989 17.71123,-4.95685c4.63446,-0.98232 9.24176,-2.32056 13.88761,-3.22013c4.89874,-0.94854 9.77873,-0.81292 14.67497,-1.79217c3.14238,-0.5197 6.35282,-0.95662 9.4232,-1.52004c0.74673,-0.13702 -0.5241,-1.42533 -0.80813,-2.12939c-0.61345,-1.52062 -1.04601,-3.11106 -1.67862,-4.6238c-1.17476,-2.80915 -2.50821,-5.88719 -4.61792,-8.17172c-1.90395,1.35557 -4.30698,1.91614 -6.2113,3.2764c-0.60342,0.43102 -0.65632,1.33232 -1.044,1.96446c-2.33213,3.80276 -3.99476,8.45435 -7.68914,11.21836c-2.26288,1.69301 -4.76926,2.15294 -7.36189,2.05064c-4.65674,1.36341 -9.73539,0.64184 -14.9102,-0.005zM250.65839,273.61994c-2.82342,-0.68274 -5.29708,-2.45074 -8.09931,-3.2158c-5.55648,-1.51702 -10.79202,0.69593 -16.25621,-1.40114c-2.39634,-1.04291 -4.84977,-1.70242 -7.33629,-2.21475c1.03795,0.55003 2.04732,1.15887 3.0615,1.75078c1.9426,1.13377 5.93248,3.96865 8.10986,4.81366c4.36124,1.69254 9.25423,0.58936 13.77698,0.84545c3.18267,0.18021 6.31678,0.95352 9.44864,1.49394c3.31815,-0.3447 6.58093,-0.42435 9.84501,-0.67804c-4.20026,-0.43631 -8.48863,-0.41195 -12.55018,-1.39409zM308.51352,233.46655c0.17791,-0.09201 0.38104,-0.1653 0.613,-0.21273c-0.0679,-0.18769 -0.12444,-0.37907 -0.16481,-0.57573c-0.1378,-0.67126 0.90471,-1.66437 0.32509,-2.0299c-0.56379,-0.35555 -0.23867,1.31693 -0.45707,1.94668c-0.10122,0.29188 -0.20649,0.58258 -0.31622,0.87168zM231.32302,103.71081c0.87473,-0.34302 1.50529,-1.32592 2.44169,-1.46805c2.19819,-0.33363 4.37505,1.45246 6.57435,1.12618c1.1462,-0.17005 0.80258,-2.16409 0.67515,-3.40995l-1.58433,-4.3569c-0.10996,-0.28168 -0.17031,-0.58819 -0.17031,-0.90879c0,-0.93948 0.51822,-1.75793 1.2844,-2.18508l-0.04065,-0.1355c-2.44552,-2.25795 -6.10809,-4.14241 -9.57642,-3.27013c-2.26203,0.56889 -2.03289,2.90842 -4.81262,3.06542c-1.56205,0.08822 -2.90544,-1.2627 -4.45528,-1.47673c-1.04881,-0.14484 -3.07305,0.21875 -2.91335,1.2654c0.28682,1.87985 2.23378,3.13634 2.87859,4.92528c0.4241,1.17663 0.80742,4.56024 1.07412,5.76156c0.05344,0.24072 0.10612,0.48226 0.16066,0.72351l1.64689,0.33844c0.87078,-0.00325 1.75114,0.08951 2.62966,0.17049c0.16941,-0.2591 1.42044,-2.02027 3.41023,-0.82639c0.33831,0.20299 0.59121,0.42733 0.77721,0.66124zM308.01776,104.33607c1.94779,-0.57849 3.58019,-1.57345 3.71739,-3.67682c-0.0444,-2.82138 -0.48967,-5.73971 -1.68482,-8.29583c-1.84129,-3.93804 -8.33344,-4.48157 -11.95782,-3.05511c-1.13911,0.44832 -1.05357,2.21121 -1.52323,3.3417c-0.76629,1.84449 -1.36842,3.75787 -1.89345,5.68496c-0.26331,0.96649 -2.27527,5.33679 -1.60012,6.64029c0.14848,0.28668 0.6083,-0.24515 0.93021,-0.26979c0.91521,-0.07005 1.83576,-0.01128 2.75365,-0.01217c3.1368,-0.00303 5.93989,-0.33625 9.00971,-0.95145c0,0 1.35175,-0.27035 2.24847,0.59422zM274.31351,208.23342c4.81065,-1.84769 11.30417,-2.38966 15.10916,-6.23594c1.18099,-1.19381 1.75045,-2.86956 2.62543,-4.3093c-4.3668,1.25797 -8.96897,1.96968 -13.08994,3.73847c-3.00407,1.2894 -5.29676,3.88007 -8.20709,5.36903c-0.47098,0.24096 -0.95374,0.46527 -1.44671,0.67425c1.64364,0.37321 3.29028,0.7445 5.00915,0.76348zM250.24031,163.21934c0.81333,-1.10316 1.72108,-1.94642 2.69774,-2.57136c-2.13306,-0.33252 -4.2391,-0.57984 -6.25755,-0.43533c-2.45602,0.17584 -4.65069,1.17643 -7.06233,1.49905c-3.8082,0.50944 -6.80969,0.64131 -10.31265,2.25227c-1.99333,0.9167 -3.97162,2.00301 -5.93222,3.13835c1.80679,-0.56644 4.61453,-0.40841 5.88627,-0.40903c4.99187,-0.00242 9.80043,-0.83805 14.72446,0.60727c1.50185,0.44082 3.16352,1.4583 4.67498,2.4783c-0.42284,-2.16284 0.12674,-4.58663 1.5813,-6.55953zM272.48247,164.01281c1.03596,0.58297 5.85715,3.44714 7.6196,5.35772c1.76164,-0.03536 3.51895,-0.08288 5.26548,-0.1749c1.09244,0.15759 2.7326,0.39409 4.44482,0.76772c-1.05187,-0.90143 -1.91951,-1.65049 -2.1171,-1.81994c-2.4961,-1.88772 -5.08711,-2.68901 -7.88751,-3.89104c-2.71714,-1.16629 -5.38819,-2.69728 -8.32097,-3.07399c-1.51292,-0.19433 -3.01573,-0.10215 -4.51319,0.05592c2.01401,0.86418 3.90169,1.87411 5.50887,2.77852zM277.31144,174.96125c-1.15535,0.63827 -7.67651,0.6853 -9.62566,0.73096c-1.92041,-0.15912 -3.83173,-0.26856 -5.74013,-0.38601c-0.33178,0.1001 -0.61838,0.27235 -0.83032,0.56226c-1.8733,2.56245 0.52938,8.69115 2.79751,10.56763c0.96499,-1.09476 2.53353,-0.6466 2.53353,-0.6466l3.52976,1.0087c1.4087,0.45995 2.75058,1.24245 4.22608,1.37984c1.05082,0.09785 8.41342,-1.31263 9.1853,-1.45974c2.34129,-0.44621 5.04967,-0.18336 6.97013,-1.59493c2.10851,-1.54978 4.91254,-6.25126 2.56221,-8.73729c-1.2693,-1.34259 -6.09899,-1.95983 -7.76826,-2.19511c-2.31043,0.13584 -4.63722,0.18317 -6.96646,0.22593c-0.29147,0.20332 -0.58682,0.38585 -0.87371,0.54434zM232.45683,188.97948c3.21413,0.84896 6.46756,1.13215 9.78589,1.76095c2.19996,0.41689 4.23259,1.49466 6.41732,1.98515c0.86215,0.19356 2.89369,0.81457 2.6506,-0.03495c-0.48771,-1.70437 -1.90277,-3.03805 -2.43053,-4.73045c-0.59264,-1.90043 -1.24644,-5.60548 -1.57957,-7.81618c-0.17564,-1.16562 -0.70321,-2.34646 -0.47903,-3.50372c0.3756,-1.93888 2.54613,-1.16324 0.72003,-1.63084c-0.98584,-0.64272 -3.7722,-2.58309 -5.00642,-2.92341c-4.42993,-1.22148 -8.77136,-0.39052 -13.27554,-0.39273c-0.91789,-0.00045 -1.8366,0.02692 -2.75366,-0.01217c-0.35374,-0.01507 -0.81429,-0.41285 -1.05151,-0.15002c-0.93445,1.03529 0.46623,2.70717 0.70153,3.44982c1.53241,4.83652 2.63933,10.43806 6.30089,13.99855z" fill="#000000" stroke="none" stroke-width="0.5"/><path d="M308.04792,104.37594c-0.89672,-0.86457 -2.25641,-0.58931 -2.25641,-0.58931c-3.06982,0.6152 -5.92405,0.94442 -9.06085,0.94745c-0.91789,0.00089 -1.84585,-0.06431 -2.76106,0.00574c-0.32191,0.02464 -0.78294,0.55514 -0.93142,0.26846c-0.67515,-1.3035 1.32529,-5.69716 1.5886,-6.66365c0.52503,-1.92709 1.13572,-3.87946 1.90201,-5.72395c0.46966,-1.13049 0.40004,-2.9076 1.53915,-3.35592c3.62438,-1.42646 10.18439,-0.86443 12.02568,3.07361c1.19515,2.55612 1.64343,5.51837 1.68783,8.33975c-0.1372,2.10337 -1.78573,3.11932 -3.73352,3.69781z" data-paper-data="{&quot;noHover&quot;:false,&quot;origItem&quot;:[&quot;Path&quot;,{&quot;applyMatrix&quot;:true,&quot;segments&quot;:[[[308.01776,104.33607],[0,0],[1.94779,-0.57849]],[[311.73515,100.65925],[-0.1372,2.10337],[-0.0444,-2.82138]],[[310.05033,92.36342],[1.19515,2.55612],[-1.84129,-3.93804]],[[298.09251,89.30831],[3.62438,-1.42646],[-1.13911,0.44832]],[[296.56928,92.65001],[0.46966,-1.13049],[-0.76629,1.84449]],[[294.67583,98.33497],[0.52503,-1.92709],[-0.26331,0.96649]],[[293.07571,104.97526],[-0.67515,-1.3035],[0.14848,0.28668]],[[294.00592,104.70547],[-0.32191,0.02464],[0.91521,-0.07005]],[[296.75957,104.6933],[-0.91789,0.00089],[3.1368,-0.00303]],[[305.76928,103.74185],[-3.06982,0.6152],[0,0]],[[308.01775,104.33607],[-0.89672,-0.86457],[0,0]]],&quot;closed&quot;:true,&quot;fillColor&quot;:[0,0,0,1]}]}" fill="#939393" stroke="none" stroke-width="0.5"/><path d="M231.33222,103.75995c-0.186,-0.23391 -0.44366,-0.45759 -0.78197,-0.66058c-1.98979,-1.19388 -3.26285,0.5643 -3.43226,0.8234c-0.87852,-0.08098 -1.77113,-0.18042 -2.64191,-0.17717l-1.65268,-0.34348c-0.05454,-0.24125 -0.10944,-0.4852 -0.16288,-0.72592c-0.2667,-1.20132 -0.66209,-4.61461 -1.08619,-5.79124c-0.64481,-1.78894 -2.58837,-3.0668 -2.87519,-4.94665c-0.1597,-1.04665 1.86982,-1.42017 2.91863,-1.27533c1.54984,0.21403 2.90079,1.55627 4.46284,1.46805c2.77973,-0.157 2.59091,-2.50911 4.85294,-3.078c3.46833,-0.87228 7.17099,1.04398 9.61651,3.30193l0.04087,0.13609c-0.76618,0.42715 -1.28216,1.25385 -1.28216,2.19333c0,0.3206 0.06098,0.63193 0.17094,0.91361l1.58207,4.37638c0.12743,1.24586 0.46496,3.25242 -0.68124,3.42247c-2.1993,0.32628 -4.39038,-1.44581 -6.58857,-1.11218c-0.9364,0.14213 -1.58503,1.13227 -2.45976,1.47529z" data-paper-data="{&quot;noHover&quot;:false,&quot;origItem&quot;:[&quot;Path&quot;,{&quot;applyMatrix&quot;:true,&quot;segments&quot;:[[[231.32302,103.71081],[0,0],[0.87473,-0.34302]],[[233.76471,102.24276],[-0.9364,0.14213],[2.19819,-0.33363]],[[240.33906,103.36894],[-2.1993,0.32628],[1.1462,-0.17005]],[[241.01421,99.95899],[0.12743,1.24586],[0,0]],[[239.42988,95.60209],[0,0],[-0.10996,-0.28168]],[[239.25957,94.6933],[0,0.3206],[0,-0.93948]],[[240.54397,92.50822],[-0.76618,0.42715],[0,0]],[[240.50332,92.37272],[0,0],[-2.44552,-2.25795]],[[230.9269,89.10259],[3.46833,-0.87228],[-2.26203,0.56889]],[[226.11428,92.16801],[2.77973,-0.157],[-1.56205,0.08822]],[[221.659,90.69128],[1.54984,0.21403],[-1.04881,-0.14484]],[[218.74565,91.95668],[-0.1597,-1.04665],[0.28682,1.87985]],[[221.62424,96.88196],[-0.64481,-1.78894],[0.4241,1.17663]],[[222.69836,102.64352],[-0.2667,-1.20132],[0.05344,0.24072]],[[222.85902,103.36703],[-0.05454,-0.24125],[0,0]],[[224.50591,103.70547],[0,0],[0.87078,-0.00325]],[[227.13557,103.87596],[-0.87852,-0.08098],[0.16941,-0.2591]],[[230.5458,103.04957],[-1.98979,-1.19388],[0.33831,0.20299]],[[231.32301,103.71081],[-0.186,-0.23391],[0,0]]],&quot;closed&quot;:true,&quot;fillColor&quot;:[0,0,0,1]}]}" fill="#939393" stroke="none" stroke-width="0.5"/><path d="M250.28979,163.21214c-1.45456,1.9729 -2.00815,4.42467 -1.58531,6.58751c-1.51146,-1.02 -3.17216,-2.03975 -4.67401,-2.48057c-4.92403,-1.44532 -9.82812,-0.61874 -14.81999,-0.61632c-1.27174,0.00062 -4.07988,-0.15977 -5.88667,0.40667c1.9606,-1.13534 3.9387,-2.23445 5.93203,-3.15115c3.50296,-1.61096 6.57458,-1.78278 10.38278,-2.29222c2.41164,-0.32262 4.62951,-1.30197 7.08553,-1.47781c2.01845,-0.14451 4.12883,0.11315 6.26189,0.44567c-0.97666,0.62494 -1.88292,1.47506 -2.69625,2.57822z" data-paper-data="{&quot;noHover&quot;:false,&quot;origItem&quot;:[&quot;Path&quot;,{&quot;applyMatrix&quot;:true,&quot;segments&quot;:[[[250.24031,163.21934],[0,0],[0.81333,-1.10316]],[[252.93805,160.64798],[-0.97666,0.62494],[-2.13306,-0.33252]],[[246.6805,160.21265],[2.01845,-0.14451],[-2.45602,0.17584]],[[239.61817,161.7117],[2.41164,-0.32262],[-3.8082,0.50944]],[[229.30552,163.96397],[3.50296,-1.61096],[-1.99333,0.9167]],[[223.3733,167.10232],[1.9606,-1.13534],[1.80679,-0.56644]],[[229.25957,166.69329],[-1.27174,0.00062],[4.99187,-0.00242]],[[243.98403,167.30056],[-4.92403,-1.44532],[1.50185,0.44082]],[[248.65901,169.77886],[-1.51146,-1.02],[-0.42284,-2.16284]],[[250.24031,163.21933],[-1.45456,1.9729],[0,0]]],&quot;closed&quot;:true,&quot;fillColor&quot;:[0,0,0,1]}]}" fill="#939393" stroke="none" stroke-width="0.5"/><path d="M272.43402,164.00049c-1.60718,-0.90441 -3.49322,-1.91957 -5.50723,-2.78375c1.49746,-0.15807 3.00475,-0.25929 4.51767,-0.06496c2.93278,0.37671 5.68346,1.90099 8.4006,3.06728c2.8004,1.20203 5.40224,2.05022 7.89834,3.93794c0.19759,0.16945 1.0637,0.92306 2.11557,1.82449c-1.71222,-0.37363 -3.35475,-0.60494 -4.44719,-0.76253c-1.74653,0.09202 -3.5278,0.16192 -5.28944,0.19728c-1.76245,-1.91058 -6.65236,-4.83278 -7.68832,-5.41575z" data-paper-data="{&quot;noHover&quot;:false,&quot;origItem&quot;:[&quot;Path&quot;,{&quot;applyMatrix&quot;:true,&quot;segments&quot;:[[[272.48247,164.01281],[0,0],[1.03596,0.58297]],[[280.10207,169.37053],[-1.76245,-1.91058],[1.76164,-0.03536]],[[285.36755,169.19563],[-1.74653,0.09202],[1.09244,0.15759]],[[289.81237,169.96335],[-1.71222,-0.37363],[-1.05187,-0.90143]],[[287.69527,168.14341],[0.19759,0.16945],[-2.4961,-1.88772]],[[279.80776,164.25237],[2.8004,1.20203],[-2.71714,-1.16629]],[[271.48679,161.17838],[2.93278,0.37671],[-1.51292,-0.19433]],[[266.9736,161.2343],[1.49746,-0.15807],[2.01401,0.86418]],[[272.48247,164.01282],[-1.60718,-0.90441],[0,0]]],&quot;closed&quot;:true,&quot;fillColor&quot;:[0,0,0,1]}]}" fill="#939393" stroke="none" stroke-width="0.5"/><path d="M277.3129,174.91125c0.28689,-0.15849 0.58848,-0.34044 0.87995,-0.54376c2.32924,-0.04276 4.686,-0.07355 6.99643,-0.20939c1.66927,0.23528 6.50911,0.87084 7.77841,2.21343c2.35033,2.48603 -0.45361,7.21631 -2.56212,8.76609c-1.92046,1.41157 -4.63929,1.16757 -6.98058,1.61378c-0.77188,0.14711 -8.19125,1.57061 -9.24207,1.47276c-1.4755,-0.13739 -2.83742,-0.93515 -4.24612,-1.3951l-3.53634,-1.01978c0,0 -1.56909,-0.44949 -2.53408,0.64527c-2.26813,-1.87648 -4.67179,-8.0394 -2.79849,-10.60185c0.21194,-0.28991 0.49937,-0.46446 0.83115,-0.56456c1.9084,0.11745 3.82313,0.2198 5.74354,0.37892c1.94915,-0.04566 8.515,-0.11752 9.67035,-0.75579z" data-paper-data="{&quot;noHover&quot;:false,&quot;origItem&quot;:[&quot;Path&quot;,{&quot;applyMatrix&quot;:true,&quot;segments&quot;:[[[277.31144,174.96125],[0,0],[-1.15535,0.63827]],[[267.68578,175.69221],[1.94915,-0.04566],[-1.92041,-0.15912]],[[261.94565,175.3062],[1.9084,0.11745],[-0.33178,0.1001]],[[261.11533,175.86846],[0.21194,-0.28991],[-1.8733,2.56245]],[[263.91284,186.43609],[-2.26813,-1.87648],[0.96499,-1.09476]],[266.44637,185.78949],[[269.97613,186.79819],[0,0],[1.4087,0.45995]],[[274.20221,188.17803],[-1.4755,-0.13739],[1.05082,0.09785]],[[283.38751,186.71829],[-0.77188,0.14711],[2.34129,-0.44621]],[[290.35764,185.12336],[-1.92046,1.41157],[2.10851,-1.54978]],[[292.91985,176.38607],[2.35033,2.48603],[-1.2693,-1.34259]],[[285.15159,174.19096],[1.66927,0.23528],[-2.31043,0.13584]],[[278.18513,174.41689],[2.32924,-0.04276],[-0.29147,0.20332]],[[277.31142,174.96123],[0.28689,-0.15849],[0,0]]],&quot;closed&quot;:true,&quot;fillColor&quot;:[0,0,0,1]}]}" fill="#939393" stroke="none" stroke-width="0.5"/><path d="M226.11314,174.95508c-0.2353,-0.74265 -1.63145,-2.42086 -0.697,-3.45615c0.23722,-0.26283 0.69894,0.13361 1.05268,0.14868c0.91706,0.03909 1.84053,0.0071 2.75842,0.00755c4.50418,0.00221 8.8974,-0.83668 13.32733,0.3848c1.23422,0.34032 4.04055,2.29599 5.02639,2.93871c1.8261,0.4676 -0.34204,-0.3047 -0.71764,1.63418c-0.22418,1.15726 0.31026,2.35409 0.4859,3.51971c0.33313,2.2107 0.98236,5.95074 1.575,7.85117c0.52776,1.6924 1.93783,3.03368 2.42554,4.73805c0.24309,0.84952 -1.79225,0.23276 -2.6544,0.0392c-2.18473,-0.49049 -4.23127,-1.55847 -6.43123,-1.97536c-3.31833,-0.6288 -6.62579,-0.9193 -9.83992,-1.76826c-3.66156,-3.56049 -4.77865,-9.22576 -6.31106,-14.06228z" data-paper-data="{&quot;noHover&quot;:false,&quot;origItem&quot;:[&quot;Path&quot;,{&quot;applyMatrix&quot;:true,&quot;segments&quot;:[[[232.45683,188.97948],[-3.66156,-3.56049],[3.21413,0.84896]],[[242.24272,190.74043],[-3.31833,-0.6288],[2.19996,0.41689]],[[248.66004,192.72558],[-2.18473,-0.49049],[0.86215,0.19356]],[[251.31064,192.69063],[0.24309,0.84952],[-0.48771,-1.70437]],[[248.88011,187.96018],[0.52776,1.6924],[-0.59264,-1.90043]],[[247.30054,180.144],[0.33313,2.2107],[-0.17564,-1.16562]],[[246.82151,176.64028],[-0.22418,1.15726],[0.3756,-1.93888]],[[247.54154,175.00944],[1.8261,0.4676],[-0.98584,-0.64272]],[[242.53512,172.08603],[1.23422,0.34032],[-4.42993,-1.22148]],[[229.25958,171.6933],[4.50418,0.00221],[-0.91789,-0.00045]],[[226.50592,171.68113],[0.91706,0.03909],[-0.35374,-0.01507]],[[225.45441,171.53111],[0.23722,-0.26283],[-0.93445,1.03529]],[[226.15594,174.98093],[-0.2353,-0.74265],[1.53241,4.83652]]],&quot;closed&quot;:true,&quot;fillColor&quot;:[0,0,0,1]}]}" fill="#939393" stroke="none" stroke-width="0.5"/><path d="M270.27089,209.04184c0.49297,-0.20898 0.97557,-0.4337 1.44655,-0.67466c2.91032,-1.48897 5.21236,-4.13097 8.21643,-5.42036c4.12097,-1.76879 8.8058,-2.46822 13.1726,-3.72619c-0.87498,1.43974 -1.44009,3.13105 -2.62109,4.32486c-3.80499,3.84627 -10.38671,4.42562 -15.19736,6.27331c-1.71887,-0.01898 -3.37349,-0.40374 -5.01713,-0.77696z" data-paper-data="{&quot;noHover&quot;:false,&quot;origItem&quot;:[&quot;Path&quot;,{&quot;applyMatrix&quot;:true,&quot;segments&quot;:[[[535.08187,411.97329],[-3.43774,-0.03796],[9.62129,-3.69539]],[[565.30019,399.50142],[-7.60998,7.69255],[2.36199,-2.38762]],[[570.55105,390.88282],[-1.74996,2.87947],[-8.73359,2.51595]],[[544.37116,398.35976],[8.24195,-3.53757],[-6.00814,2.57879]],[[527.95699,409.09783],[5.82064,-2.97794],[-0.94197,0.48193]],[[525.06356,410.44633],[0.98594,-0.41796],[3.28728,0.74643]]],&quot;closed&quot;:true}]}" fill="#d8d8d8" stroke="none" stroke-width="0.5"/><path d="M302.15396,238.54909c0.0474,-0.0198 0.09531,-0.03961 0.14259,-0.05996c-1.15832,2.2485 -2.20659,4.52004 -2.88806,7.06892c-0.38167,1.42757 -0.53981,2.99624 -0.99471,4.40219c-0.2898,0.89567 -0.97633,1.62955 -1.27906,2.52092c-0.09373,0.27601 0.40659,0.92974 0.12201,0.86663c-2.04705,-0.45394 -1.96042,-7.58884 -2.05831,-8.47743c-0.07578,-0.41712 -0.14556,-0.84657 -0.22146,-1.26387c0.07943,-0.02836 0.15976,-0.05971 0.2383,-0.09004c1.18311,-0.45682 3.35705,-2.52969 4.95491,-4.31247z" data-paper-data="{&quot;noHover&quot;:false,&quot;origItem&quot;:[&quot;Path&quot;,{&quot;applyMatrix&quot;:true,&quot;segments&quot;:[[[584.74705,470.90502],[0,0],[-3.19573,3.56556]],[[574.94127,479.48978],[2.36621,-0.91365],[-0.15708,0.06065]],[[574.46736,479.66582],[0.15885,-0.05672],[0.15179,0.83459]],[[574.92134,482.16933],[-0.15156,-0.83423],[0.19579,1.77717]],[[578.96069,498.99681],[-4.0941,-0.90789],[0.56916,0.12621]],[[578.72074,497.2644],[-0.18747,0.55202],[0.60545,-1.78276]],[[581.26216,492.22016],[-0.5796,1.79133],[0.90981,-2.8119]],[[583.15542,483.55839],[-0.76335,2.85514],[1.36295,-5.09776]],[[588.97784,469.46753],[-2.31664,4.49699],[-0.09457,0.04069]],[[588.69378,469.58798],[0.0948,-0.03961],[0,0]]],&quot;closed&quot;:true}]}" fill="#939393" stroke="none" stroke-width="0.5"/><path d="M288.263,243.98967c-0.74325,4.55974 -1.44608,9.64067 -4.33485,13.13546c-0.44096,0.53347 -1.17987,0.75485 -1.70091,1.21043c-0.71519,0.62535 -1.11561,1.72533 -2.01752,2.02387c-2.56443,0.84886 -4.18999,-4.11168 -4.60584,-5.37815c-0.38913,-1.18507 -0.71437,-2.42308 -0.91743,-3.65376c-0.14392,-0.87228 -0.22381,-1.77218 -0.294,-2.65419c0.04692,-0.49803 0.05287,-1.00207 -0.00952,-1.49148c0.42147,-0.70027 0.77581,-1.32484 0.98179,-1.65966c1.2606,-2.04908 2.65437,-3.91654 3.75184,-5.87491c2.42843,2.12042 5.80063,3.74064 9.14644,4.34238z" data-paper-data="{&quot;noHover&quot;:false,&quot;origItem&quot;:[&quot;Path&quot;,{&quot;applyMatrix&quot;:true,&quot;segments&quot;:[[[542.68273,471.7919],[4.85687,4.24084],[-2.19495,3.91675]],[[535.2379,483.5044],[2.52119,-4.09816],[-0.41196,0.66963]],[[533.28711,486.80142],[0.84295,-1.40054],[0.12479,0.97881]],[[533.3118,489.76569],[0.09383,-0.99606],[0.14039,1.76402]],[[533.89994,495.0357],[-0.28784,-1.74456],[0.40611,2.46136]],[[535.71235,502.29682],[-0.77826,-2.37013],[0.83171,2.53293]],[[544.85905,513.01895],[-5.12886,1.69773],[1.80381,-0.59709]],[[548.87252,508.97122],[-1.43038,1.2507],[1.04207,-0.91116]],[[552.25062,506.55593],[-0.88192,1.06693],[5.77754,-6.98958]],[[560.87954,480.44465],[-1.48651,9.11947],[-6.69163,-1.20348]]],&quot;closed&quot;:true}]}" fill="#939393" stroke="none" stroke-width="0.5"/><path d="M268.86285,251.27516c-0.1583,2.50358 -0.51114,5.11062 -1.76191,6.1794c-2.80729,2.3988 -7.58945,1.2998 -9.89519,-1.21419c-0.44502,-0.48522 -0.78442,-1.20142 -1.03262,-2.02743c0.35018,-1.97587 0.4776,-3.94109 0.5503,-5.37747c0.09751,-1.92649 1.19749,-4.03172 0.4276,-5.80037c-0.12417,-0.28525 -0.28477,-0.543 -0.47374,-0.77936l0.06626,-0.04969l-0.29805,-0.39731c0.60077,0.7711 1.2802,1.39125 1.43646,1.56376c3.23833,3.57518 5.95522,7.7262 10.98089,7.90265z" data-paper-data="{&quot;noHover&quot;:false,&quot;origItem&quot;:[&quot;Path&quot;,{&quot;applyMatrix&quot;:true,&quot;segments&quot;:[[[500.24835,479.22767],[6.47666,7.15036],[-0.31251,-0.34502]],[[497.37799,476.09838],[1.20155,1.5422],[0,0]],[497.97399,476.89306],[[497.84214,476.99195],[0,0],[0.37793,0.4727]],[[498.79028,478.55017],[-0.24834,-0.5705],[1.53978,3.5373]],[[497.97263,490.09495],[0.19501,-3.85297],[-0.1454,2.87277]],[[496.86018,500.77288],[0.70035,-3.95174],[0.49639,1.65201]],[[498.90695,504.80569],[-0.89004,-0.97043],[4.61147,5.02799]],[[518.57675,507.22445],[-5.61458,4.7976],[2.50155,-2.13755]],[[522.0557,494.93465],[-0.3166,5.00716],[-10.05134,-0.35291]]],&quot;closed&quot;:true}]}" fill="#939393" stroke="none" stroke-width="0.5"/><path d="M196.59296,209.57645c-3.73817,-0.15633 -7.82221,0.95096 -10.93317,-1.34961c-2.20717,-1.63221 -3.35124,-4.48821 -4.5618,-6.79361c-0.44359,-0.8219 -0.44147,-1.2471 -0.16731,-1.39859c0.06741,0.0323 0.21893,0.11794 0.28515,0.1507c0.31736,0.53356 0.80168,0.97324 1.82034,1.02899c1.24246,0.79156 2.48073,1.72179 3.90903,2.64851c3.16437,2.05312 6.50011,3.65157 9.64777,5.71362z" data-paper-data="{&quot;noHover&quot;:false,&quot;origItem&quot;:[&quot;Path&quot;,{&quot;applyMatrix&quot;:true,&quot;segments&quot;:[[[358.23288,400.07472],[6.32873,4.10625],[-2.8566,-1.85343]],[[350.58504,394.88261],[2.48491,1.58313],[-2.03733,-0.11149]],[[346.77582,392.71697],[0.63472,1.06711],[-0.13242,-0.06552]],[[346.375,392.52179],[0.13482,0.0646],[-0.54831,0.30298]],[[346.71587,395.30731],[-0.88718,-1.6438],[2.42114,4.6108]],[[355.81515,408.77872],[-4.41433,-3.26442],[6.22192,4.60114]],[[377.52879,411.50135],[-7.47634,-0.31265],[-6.29532,-4.12411]]],&quot;closed&quot;:true}]}" fill="#d8d8d8" stroke="none" stroke-width="0.5"/><path d="M202.51022,226.5787c1.13372,4.71073 2.67048,10.08664 6.35168,12.99128c-0.8294,1.83053 -1.4488,3.60408 -1.78104,4.50293c-0.30057,0.81318 -1.31166,2.98569 -1.57137,4.74848c-0.17453,-1.02908 -0.39799,-2.0516 -0.66123,-3.0611c-0.31423,-1.20506 -0.8608,-2.35096 -1.16661,-3.55819c-0.23396,-0.92363 -0.33014,-1.89822 -0.48458,-2.83842c-0.71669,-4.28814 -0.59009,-8.5549 -0.68686,-12.78498z" data-paper-data="{&quot;noHover&quot;:false,&quot;origItem&quot;:[&quot;Path&quot;,{&quot;applyMatrix&quot;:true,&quot;segments&quot;:[[[390.90596,471.07106],[-1.43337,-8.57627],[0.30887,1.88039]],[[391.83256,476.71224],[-0.46792,-1.84725],[0.6116,2.41445]],[[394.13551,483.8206],[-0.62846,-2.41011],[0.52648,2.019]],[[395.44926,489.9423],[-0.34906,-2.05817],[0.51942,-3.52558]],[[398.56897,480.44769],[-0.60114,1.62635],[0.66447,-1.7977]],[[402.06637,471.48889],[-1.65879,3.66106],[-7.36239,-5.80928]],[[389.47662,445.6531],[2.26744,9.42147],[0.19353,8.46015]]],&quot;closed&quot;:true}]}" fill="#939393" stroke="none" stroke-width="0.5"/><path d="M231.00779,244.07496c-0.60101,1.96321 -0.99285,4.09803 -1.87148,5.93967c-0.13281,0.27838 -1.60449,3.31167 -2.51199,3.28646c-2.01239,-0.05589 -3.06239,-2.91101 -3.64954,-4.14232c-1.0059,-2.10945 -2.00859,-4.28 -2.97875,-6.39028c1.79804,-0.07628 3.60727,-0.48709 5.22978,-1.26191c1.7304,-0.82634 3.46705,-2.19778 4.857,-3.87979c0.17328,2.15693 0.47596,4.33279 0.92497,6.44816z" data-paper-data="{&quot;noHover&quot;:false,&quot;origItem&quot;:[&quot;Path&quot;,{&quot;applyMatrix&quot;:true,&quot;segments&quot;:[[[444.54399,467.73944],[0.34656,4.31385],[-2.77989,3.36401]],[[434.88741,475.51246],[3.4608,-1.65268],[-3.24502,1.54964]],[[424.51075,477.98046],[3.59608,-0.15255],[1.94032,4.22055]],[[430.43481,490.63449],[-2.01179,-4.2189],[1.1743,2.46262]],[[437.66331,498.90272],[-4.02478,-0.11179],[1.81499,0.05041]],[[442.63908,492.35063],[-0.26563,0.55677],[1.75726,-3.68328]],[[446.34745,480.57385],[-1.20203,3.92641],[-0.89802,-4.23073]]],&quot;closed&quot;:true}]}" fill="#939393" stroke="none" stroke-width="0.5"/><path d="M297.28516,280.34232c2.59263,0.1023 5.09844,-0.35449 7.36132,-2.04751c3.69438,-2.76401 5.35656,-7.40581 7.68869,-11.20857c0.38768,-0.63214 0.44068,-1.53195 1.0441,-1.96297c1.90431,-1.36027 4.40681,-1.93097 6.31076,-3.28654c2.10971,2.28454 3.44353,5.36839 4.61829,8.17755c0.63261,1.51274 1.06509,3.10623 1.67854,4.62684c0.28404,0.70406 1.55477,1.99371 0.80804,2.13074c-3.07039,0.56342 -6.281,1.00203 -9.42338,1.52172c-4.89624,0.97925 -9.77672,0.84686 -14.67546,1.79539c-4.64585,0.89957 -9.25488,2.24454 -13.88934,3.22686c-5.97736,1.26696 -11.62714,4.44404 -17.72051,4.97333c-9.0258,0.78402 -17.74271,-1.12223 -26.63418,-1.98739c-4.06925,-0.39595 -7.73377,0.04049 -11.79381,-0.87787c-3.16926,-0.70428 -6.3146,-1.58043 -9.51591,-2.12068c-4.67911,-0.78964 -9.66456,-0.58934 -14.2863,-1.64215c-3.27097,-0.74511 -6.36138,-2.20731 -9.65215,-2.85944c-4.61074,-0.9137 -9.56638,-0.80853 -14.0454,-2.36848c-4.99697,-1.74035 -7.77193,-8.02977 -10.3464,-12.06317c-0.9841,-1.54179 -2.79322,-3.04357 -1.80672,-5.10992c1.26805,-2.65611 6.6539,-4.5746 8.96906,-5.86053c0.37362,-0.38939 0.58211,-1.14294 1.12112,-1.16917c0.43416,-0.02112 0.49116,0.83188 0.8305,1.10352c1.48143,1.18592 2.88429,2.48857 4.49381,3.4938c2.81197,1.7562 5.54463,1.89414 8.37588,2.5466c0.80387,0.36194 1.60691,0.72056 2.38468,1.10635c2.37141,1.17626 4.39351,2.82894 6.61623,4.16852c2.56295,2.42228 4.98909,5.12033 7.89746,6.82688c0.84442,0.49548 1.94898,0.32637 2.84965,0.7102c1.40441,0.59851 2.6969,1.42903 4.00985,2.20797c2.50835,1.48812 6.17392,4.15054 8.88618,5.17261c5.00439,1.88581 10.03629,0.84965 15.20001,1.1305c3.19883,0.17398 6.4025,0.99916 9.56128,1.49875c5.74885,-0.55433 11.3097,-0.42062 17.00334,-1.517c1.40925,-0.27136 2.84652,-0.64918 4.29981,-1.03175c2.26804,0.34095 4.59325,0.4008 6.87187,0.68563c5.1748,0.64685 10.25233,1.37278 14.90907,0.00937z" data-paper-data="{&quot;noHover&quot;:false,&quot;origItem&quot;:[&quot;Path&quot;,{&quot;applyMatrix&quot;:true,&quot;segments&quot;:[[[551.30261,556.20174],[10.34961,1.2937],[-4.55723,-0.56965]],[[537.55729,554.83522],[4.53608,0.68189],[-2.90659,0.76513]],[[528.95367,556.90821],[2.8185,-0.54273],[-11.38728,2.19275]],[[494.89128,559.99253],[11.4977,-1.10865],[-6.31757,-0.99918]],[[475.68931,556.99034],[6.39766,0.34796],[-10.32743,-0.5617]],[[445.24327,554.68123],[10.00879,3.77163],[-5.42452,-2.04413]],[[427.46299,544.30855],[5.01671,2.97625],[-2.62591,-1.55786]],[[419.44249,539.88446],[2.80882,1.19701],[-1.80135,-0.76767]],[[413.74309,538.46165],[1.68884,0.99096],[-5.81674,-3.4131]],[[397.94894,524.79194],[5.12589,4.84456],[-4.44545,-2.67917]],[[384.71749,516.44861],[4.74281,2.35251],[-1.55555,-0.77158]],[[379.94835,514.23478],[1.60774,0.72387],[-5.6625,-1.30492]],[[363.19686,509.14034],[5.62394,3.51241],[-3.21905,-2.01045]],[[354.21006,502.14924],[2.96286,2.37185],[-0.67867,-0.54329]],[[352.74241,499.99336],[0.86832,-0.04225],[-1.07802,0.05245]],[[350.50069,502.32973],[0.74724,-0.77879],[-4.63031,2.57187]],[[332.56453,514.04085],[2.5361,-5.31221],[-1.97299,4.1327]],[[336.17868,524.25435],[-1.9682,-3.08358],[5.14893,8.06681]],[[356.87135,548.3634],[-9.99394,-3.4807],[8.95805,3.11992]],[[384.96124,553.09327],[-9.22147,-1.82741],[6.58154,1.30426]],[[404.26331,558.80202],[-6.54194,-1.49022],[9.24347,2.10561]],[[432.82948,562.06928],[-9.35822,-1.57928],[6.40261,1.0805]],[[451.84652,566.28837],[-6.33853,-1.40856],[8.1201,1.83672]],[[475.3911,568.01532],[-8.1385,-0.7919],[17.78294,1.73032]],[[528.55097,572.0202],[-18.0516,1.56803],[12.18672,-1.05858]],[[563.97345,562.10651],[-11.95472,2.53392],[9.26891,-1.96464]],[[591.74865,555.66626],[-9.29169,1.79914],[9.79748,-1.89708]],[[621.0986,552.08192],[-9.79248,1.9585],[6.28476,-1.03939]],[[639.945,549.04184],[-6.14078,1.12685],[1.49345,-0.27405]],[[638.32874,544.78306],[0.56807,1.40812],[-1.22691,-3.04123]],[[634.97149,535.53545],[1.26523,3.02548],[-2.34953,-5.6183]],[[625.73565,519.19201],[4.21943,4.56907],[-3.80789,2.71114]],[[613.31306,525.74482],[3.80862,-2.72053],[-1.20684,0.86205]],[[611.22505,529.67375],[0.77535,-1.26428],[-4.66427,7.60552]],[[595.84678,552.11046],[7.38876,-5.52802],[-4.52577,3.38603]],[[581.12301,556.21174],[5.18526,0.2046],[-9.31347,2.72681]]],&quot;closed&quot;:true}]}" fill="#000000" stroke="none" stroke-width="0.5"/><path d="M239.16006,256.89177c2.02026,3.58824 4.91358,6.25649 9.66101,6.30504c2.4377,0.02493 4.09749,-1.19982 5.25988,-3.00716c0.80813,0.77179 1.90799,1.42722 3.57424,2.27027c3.8933,1.96986 9.43053,1.62264 12.77159,-1.4018c0.66931,-0.60588 1.23771,-1.17951 1.58985,-1.81635c1.72253,3.64446 4.44722,6.72073 9.26823,5.92065c1.6377,-0.27179 2.66723,-1.96972 3.99124,-2.97119c0.77749,-0.58809 1.69369,-1.03439 2.31009,-1.78963c1.87303,-2.29491 2.9321,-4.84466 3.6714,-7.52636c0.85881,3.0101 2.66836,5.40275 6.97246,5.31059c1.4737,-0.03156 2.24771,-1.94194 3.11948,-3.13054c2.08506,-2.84286 1.88101,-4.75073 2.78235,-8.1397c0.88847,-3.34059 2.55943,-6.05345 4.09143,-9.07209l0.09857,0.395c0,5.29321 0.37457,10.94233 -0.47299,16.14965c-0.25049,1.53892 -2.50015,7.48335 -2.90588,8.59947c-0.88732,3.11704 -1.8598,7.36161 -4.25626,9.76251c-1.11111,1.11317 -2.29874,1.90275 -3.53963,2.44472c-0.62542,0.03138 -1.09417,0.0351 -1.22712,0.02962c-3.97227,-0.16377 -8.05397,-1.94861 -12.01434,-1.94859c-2.83367,0.00002 -5.65716,0.64999 -8.44843,1.34532c-0.30969,-0.06787 -0.61783,-0.14475 -0.9233,-0.23341c-1.06243,-0.30835 -1.90382,-1.18168 -2.9667,-1.48845c-6.06745,-1.75119 -12.62198,-1.06638 -18.67912,-2.53131c-2.79422,-0.67579 -5.24902,-2.46229 -8.02984,-3.19124c-5.27616,-1.38307 -10.74754,0.88045 -15.66417,-1.2042c-5.62944,-2.38058 -11.44205,-3.02815 -17.3847,-4.13892c-1.34054,-0.25057 -2.53806,-0.76389 -3.66483,-1.40021c-1.99003,-1.88197 -4.0695,-3.64481 -6.59225,-4.74831c-1.15477,-0.50512 -2.12673,-0.75387 -3.03807,-0.91755c-1.67675,-0.71036 -3.3226,-1.47283 -4.58234,-2.74109c-2.95959,-2.97961 -4.11853,-7.33706 -5.99625,-10.94981c-1.22305,-2.35315 -2.48466,-4.49561 -3.58728,-6.66684c0.20969,0.20955 0.4449,0.39182 0.71153,0.53858c5.84311,3.21602 8.51011,-6.57468 9.92352,-9.64588c0.38103,-0.82794 0.6549,-1.72083 1.16406,-2.47677c0.12083,-0.17939 0.68182,-0.42962 1.13093,-0.7492c-0.18593,1.55804 0.03939,3.14377 0.04026,4.71594c0.00251,4.5655 0.2887,8.87129 1.03716,13.37392c0.39918,2.36477 1.02388,4.68639 1.75478,6.97052c0.61596,1.92493 0.46246,4.29558 1.84591,5.76895c1.24287,1.32366 3.32439,2.19462 5.07532,1.71396c1.59484,-0.43782 2.23288,-2.48973 3.00545,-3.95204c1.47124,-2.78476 1.9927,-5.99922 3.23535,-8.89192c0.17572,0.05836 0.45061,0.13476 0.62868,0.18873c0.07083,0.14635 0.14083,0.29154 0.20792,0.43688c0.71391,1.54652 1.71567,2.93982 2.47607,4.46402c2.2355,4.48096 3.70314,11.41535 10.38742,11.35423c3.01347,-0.02756 5.09158,-2.87213 6.60003,-5.85615c0.37202,0.8146 0.9155,1.53954 1.53159,2.17639c1.09357,1.13043 2.59095,1.70518 4.0557,2.35176z" data-paper-data="{&quot;noHover&quot;:false,&quot;origItem&quot;:[&quot;Path&quot;,{&quot;applyMatrix&quot;:true,&quot;segments&quot;:[[[456.57502,504.63295],[2.18713,2.26086],[-1.23217,-1.27371]],[[453.6964,500.20571],[0.74404,1.62919],[-3.0169,5.96805]],[[440.31069,511.99034],[6.02695,-0.05511],[-13.36855,0.12224]],[[419.52566,489.23166],[4.471,8.96193],[-1.52081,-3.0484]],[[414.57516,480.29057],[1.42781,3.09305],[-0.13418,-0.29067]],[[414.15956,479.41566],[0.14165,0.2927],[-0.35614,-0.10794]],[[413.09807,479.07856],[0.35144,0.11672],[-2.4853,5.78541]],[[406.6293,496.83653],[2.94247,-5.56952],[-1.54513,2.92463]],[[400.61742,504.73117],[3.18969,-0.87563],[-3.50187,0.96133]],[[390.26837,501.3279],[2.48574,2.64732],[-2.7669,-2.94675]],[[386.57613,489.77718],[1.23193,3.84986],[-1.46182,-4.56827]],[[383.06803,475.82199],[0.79837,4.72954],[-1.49691,-9.00527]],[[381.00084,449.05085],[0.00502,9.131],[-0.00173,-3.14433]],[[380.92372,439.61207],[-0.37186,3.11608],[-0.89824,0.63916]],[[378.83876,441.20374],[0.24166,-0.35879],[-1.01832,1.51187]],[[376.51276,446.15291],[0.76207,-1.65589],[-2.82682,6.1424]],[[356.67226,465.42511],[11.68622,6.43204],[-0.53327,-0.29351]],[[355.24907,464.34852],[0.41937,0.41911],[2.20524,4.34246]],[[362.42534,477.67269],[-2.44611,-4.70631],[3.75545,7.22549]],[[374.41845,499.55303],[-5.91918,-5.95923],[2.51948,2.53653]],[[383.58254,505.02895],[-3.35349,-1.42071],[1.82267,0.32737]],[[389.65827,506.86122],[-2.30954,-1.01024],[5.0455,2.20701]],[[402.83953,516.34389],[-3.98005,-3.76394],[2.25353,1.27263]],[[410.16705,519.13811],[-2.68109,-0.50114],[11.8853,2.22155]],[[444.91342,527.3806],[-11.25887,-4.76116],[9.83326,4.1693]],[[476.17952,529.76037],[-10.55233,-2.76614],[5.56165,1.45791]],[[492.20236,536.14672],[-5.58844,-1.35157],[12.11428,2.92986]],[[529.51728,541.23577],[-12.13491,-3.50239],[2.12576,0.61354]],[[535.44892,544.21454],[-2.12485,-0.61669],[0.61093,0.17731]],[[537.29474,544.68222],[-0.61937,-0.13575],[5.58254,-1.39065]],[[554.18256,542.00333],[-5.66734,0.00003],[7.92075,-0.00004]],[[578.20673,545.9081],[-7.94454,-0.32754],[0.26591,0.01096]],[[580.66047,545.8498],[-1.25084,0.06275],[2.48179,-1.08394]],[[587.73696,540.96613],[-2.22222,2.22634],[4.79292,-4.80179]],[[596.24375,521.45788],[-1.77465,6.23409],[0.81146,-2.23225]],[[602.05307,504.27342],[-0.50097,3.07785],[1.69513,-10.41463]],[[603,472],[0,10.58642],[0,0]],[[603,471.17628],[0,0],[-3.06401,6.03727]],[[594.81857,489.33467],[1.77694,-6.68117],[-1.80268,6.77795]],[[589.25325,505.62866],[4.17013,-5.68572],[-1.74354,2.37721]],[[583.01331,511.89624],[2.94739,-0.06312],[-8.60819,0.18433]],[[569.06959,501.26636],[1.71761,6.0202],[-1.47861,5.3634]],[[561.72338,516.33713],[3.74606,-4.58983],[-1.2328,1.51048]],[[557.10148,519.92184],[1.55498,-1.17618],[-2.64802,2.00295]],[[549.11495,525.8741],[3.27541,-0.54358],[-9.64203,1.60017]],[[530.39572,513.95175],[3.44507,7.28893],[-0.70428,1.27368]],[[527.39725,517.66861],[1.33861,-1.21176],[-6.68211,6.04889]],[[501.82844,520.50381],[7.78659,3.93972],[-3.33249,-1.68612]],[[494.67222,515.96897],[1.61627,1.54359],[-2.32479,3.61468]],[[484.11355,521.99871],[4.8754,0.04986],[-9.49486,-0.0971]],[[464.7092,509.36534],[4.04052,7.17648],[-2.9295,-1.29316]]],&quot;closed&quot;:true}]}" fill="#000000" stroke="none" stroke-width="0.5"/><path d="M219.39061,137.0107c0.8717,0.43586 1.23368,1.04163 1.35086,1.61859c0.9661,0.27852 1.95238,0.49185 2.9421,0.6515c0,0 0.23064,0.03844 0.53907,0.16233c-0.00202,-0.02951 -0.00341,-0.05931 -0.00415,-0.08942c-1.44015,-0.49128 -3.04346,-0.8992 -2.90257,-2.1434c0.72309,-6.38512 3.2688,-6.40915 5.86467,-5.21308c0.32993,-0.16046 0.70045,-0.25046 1.09198,-0.25046c0.29691,0 0.58173,0.05176 0.84593,0.14675l2.94464,0.98154l-0.01257,0.03772c0.05961,0.00747 0.11918,0.01556 0.17871,0.02429c1.20902,0.17729 2.22313,1.02376 3.28005,1.63705c0.21239,0.12324 0.42448,0.24765 0.63623,0.37319c1.3229,0.21145 2.47882,0.6274 2.82522,1.6087c0.022,0.06232 0.04318,0.12403 0.06355,0.18513c0.13003,0.08436 0.25987,0.16908 0.38952,0.25415l1.08461,0.36154c0.56851,0.17485 1.05062,0.54698 1.36642,1.03648c0.05961,0.0642 0.11693,0.13162 0.17182,0.20242c0.0867,0.11183 0.16824,0.23183 0.24436,0.35876c0.9314,0.66163 1.84889,1.33793 2.74928,2.02452l0.16157,0.32076l0.07066,-0.053l2.98485,3.97979c0.32311,0.42123 0.51515,0.9483 0.51515,1.52021c0,1.38071 -1.11929,2.5 -2.5,2.5h-3v-0.03287c-0.13302,0.00482 -0.26648,0.00519 -0.40045,0.00059c-4.40193,-0.15117 -9.62712,-3.57883 -13.53486,-6.02776c-0.24417,-0.01395 -0.48822,-0.02532 -0.73202,-0.03068l-2.82124,-1.59705c0.00433,0.18472 -0.00964,0.38394 -0.04545,0.59876c-0.411,2.46598 -2.87698,2.05499 -2.87698,2.05499c-2.0496,-0.35082 -4.08304,-0.88197 -6.01748,-1.64479l-0.8076,-4.43922c0,0 1.11803,-2.23607 3.35411,-1.11804z" fill="#d8d8d8" stroke="none" stroke-width="0.5"/><path d="M293.07771,133.73607c0.18844,-0.02514 0.39009,-0.03133 0.59787,-0.00622c0.03168,0.00172 0.06354,0.00427 0.09559,0.00765c1.96398,0.03346 3.60168,0.38086 4.52166,2.60625c2.2855,2.85237 2.45651,7.24168 -0.56839,9.34282c-0.14389,0.4252 -0.30845,0.81804 -0.4965,1.16213c-0.07173,0.20828 -0.15968,0.4105 -0.26602,0.60502c-2.14941,3.93182 -6.60664,2.62595 -9.84458,2.45492c-5.68953,-0.30052 -12.98999,0.91228 -16.11083,-5.10592c-1.93964,-3.7404 -0.22555,-9.09257 3.72141,-10.82722c0.68133,-0.29944 1.40628,-0.43989 2.15067,-0.50609c-0.06896,-0.22878 -0.10603,-0.47137 -0.10603,-0.72263c0,-1.30615 1.00167,-2.37835 2.27875,-2.49034l4.94768,-0.49477l0.00639,0.06386c0.3145,-0.01534 0.63077,-0.00832 0.94917,0.02572c1.97036,0.21066 3.19792,2.34192 4.76139,3.5594c0.13234,0.10305 0.26365,0.20782 0.39388,0.31423c0.39459,0.0079 0.76977,0.01614 1.12132,0.02224c0.63302,0.011 1.2518,-0.00572 1.84655,-0.01105zM286.71551,142.8413c-0.43801,-0.23627 -0.87743,-0.46901 -1.31977,-0.6968c-0.58092,-0.15828 -1.17851,-0.32147 -1.7589,-0.48019c-0.269,0.02021 -0.54251,0.07189 -0.81355,0.11695c1.08969,0.39166 2.1889,0.76228 3.32103,0.9933c0.16442,0.03356 0.36056,0.05273 0.57119,0.06673z" fill="#d8d8d8" stroke="none" stroke-width="0.5"/><path d="M233.27258,136.74677c1.71578,0 2.254,1.17755 2.42283,1.91633c0.56507,0.28253 1.13014,0.56507 1.6952,0.8476c0,0 2.23607,1.11803 1.11804,3.35411c-1.11803,2.23607 -3.35411,1.11804 -3.35411,1.11804c-1,-0.5 -2,-1 -3,-1.5l-1.38197,-3.23607c0,0 0,-2.5 2.5,-2.5z" fill="#d90000" stroke="none" stroke-width="0.5"/><path d="M284.77258,138.74677c0,-1.38071 1.11929,-2.5 2.5,-2.5c1.38071,0 2.5,1.11929 2.5,2.5c0,1.38071 -1.11929,2.5 -2.5,2.5c-1.38071,0 -2.5,-1.11929 -2.5,-2.5z" fill="#d90000" stroke="none" stroke-width="0.5"/></g><path d="M268.27105,69.69425c1.3166,-1.18382 3.27344,-1.52635 5.03671,-1.68685c3.2447,-0.29535 5.53636,0.54872 7.08752,2.06623c0.19364,-0.0481 0.3962,-0.07363 0.60472,-0.07363c1.38071,0 2.5,1.11929 2.5,2.5c0,0.18573 -0.02025,0.36673 -0.05867,0.54091l-0.48988,2.44938l-0.00906,-0.00181c0.40969,2.49048 0.20523,5.26387 -0.36161,7.76822c0.7832,0.077 1.56388,0.16924 2.3413,0.27919l0.06202,0.04361l0.00619,-0.03095l2.45459,0.49092c1.16847,0.20987 2.05512,1.23166 2.05512,2.46053c0,1.38071 -1.11929,2.5 -2.5,2.5h-0.5367c-0.30887,2 -2.4633,2 -2.4633,2c-3.70198,0 -7.6034,-0.31379 -11.2938,-0.00852c-0.44038,0.03643 -5.72811,1.01871 -5.93477,0.99805c-1.35921,-0.13591 -7.13917,-2.81369 -7.22038,-3.98686c-0.13687,-1.97726 1.8148,-3.75667 3.49224,-4.81236c1.16179,-0.73117 2.70986,-0.24759 4.1105,-0.19384c-1.00168,-4.11892 -1.97187,-10.52463 1.11726,-13.30221zM271.47553,73.80971l0.01641,-0.01456l-0.01268,-0.00761c-0.0013,0.00736 -0.00254,0.01474 -0.00373,0.02216zM277.63243,74.72722c-0.04226,-0.06418 -0.08638,-0.12696 -0.13243,-0.18828v0.41199c0.03566,-0.06279 0.07285,-0.12604 0.11168,-0.18979c0.00689,-0.01132 0.01381,-0.02263 0.02075,-0.03391zM277.4653,75.01276c0.00236,-0.00425 0.00472,-0.0085 0.00709,-0.01276h-0.00841c0.00045,0.00425 0.00089,0.0085 0.00132,0.01276z" fill="#ffe600" stroke="none" stroke-width="0.5"/><path d="M277.65854,72.42683c-0.15851,-1.11201 0.67409,-2.53452 -0.07796,-3.36886c-0.51561,-0.57203 -1.34114,0.89206 -2.10964,0.94186c-1.20391,0.07802 -2.4044,-0.276 -3.57357,-0.57355c-0.80828,-0.20571 -1.54007,-0.64242 -2.32394,-0.92736c-0.16023,-0.05824 -0.48813,-0.26971 -0.50164,-0.09976c-0.1573,1.9785 0.8107,3.89392 1.00059,5.86956c0.17035,1.77239 0.38069,3.60079 0.92048,5.30039c1.27831,0.10819 2.55322,0.26255 3.82198,0.4508c0.86545,0.12841 1.70736,0.73283 2.56469,0.55831c0.66527,-0.13542 1.11368,-0.88782 1.66044,-1.29942c-0.55408,-2.28471 -1.05696,-4.57548 -1.38145,-6.85197zM264.51031,69.69875c-0.02531,-1.37282 -0.4354,-3.0222 0.4179,-4.09791c1.02837,-1.29642 2.85651,-1.89346 4.49836,-2.09976c2.0783,-0.26114 4.0105,1.39378 6.1025,1.49909c1.62817,0.08196 3.68053,-1.15084 4.89036,-0.05814c1.66456,1.50341 1.50166,4.23035 2.11716,6.38724c0.91549,3.20814 1.5955,6.52669 2.27389,9.82859c3.34676,1.86544 9.07584,4.36433 4.2745,9.2755c-0.39614,0.4052 -1.62079,0.55735 -3.08278,0.58138c-5.93779,0.64222 -12.57616,0.81156 -18.32855,2.3928c-3.93037,1.0804 -7.07793,2.19345 -10.81765,-1.02412c-2.35391,-2.02525 -3.5573,-6.25548 -1.28635,-8.97203c1.19252,-1.42652 3.37017,-1.57634 5.09603,-2.26805c1.66528,-0.66742 3.37574,-1.16386 5.12163,-1.43851c-0.90944,-3.21532 -1.21431,-6.60599 -1.27699,-10.00607zM273.51248,87.23038c0.00772,-0.0591 0.01719,-0.11944 0.02847,-0.18104c0.15486,-0.84502 0.54689,-1.34644 0.9948,-1.64063c-1.34372,-0.16629 -2.6906,-0.43082 -4.04517,-0.61196c-1.05052,0.47488 -1.84452,0.20481 -2.38201,-0.19586c-0.99591,-0.01589 -1.99731,0.06906 -3.00595,0.32539c-1.11133,0.28243 -6.22816,0.9545 -5.64651,2.60738c1.17644,3.34307 4.76615,1.62829 6.87024,1.05881c2.30387,-0.62356 4.7259,-1.04357 7.18612,-1.36209zM278.56461,85.43078l1.26296,0.2329c0.26164,0.01857 0.53095,0.02474 0.80487,0.02426c-0.13463,-0.56436 -0.27353,-1.1303 -0.41473,-1.6975c-0.70922,0.05931 -0.89223,1.31576 -1.59726,1.43136c-0.01861,0.00305 -0.03723,0.00605 -0.05584,0.00899z" fill="#000000" stroke="none" stroke-width="0.5"/></g></g></g></svg>